<?xml version="1.0" encoding="UTF-8" standalone="no"?>
<!DOCTYPE svg PUBLIC "-//W3C//DTD SVG 1.1//EN" "http://www.w3.org/Graphics/SVG/1.1/DTD/svg11.dtd">
<svg width="100%" height="100%" viewBox="0 0 500 500" version="1.1" xmlns="http://www.w3.org/2000/svg" xmlns:xlink="http://www.w3.org/1999/xlink" xml:space="preserve" xmlns:serif="http://www.serif.com/" style="fill-rule:evenodd;clip-rule:evenodd;stroke-linejoin:round;stroke-miterlimit:2;">
    <g id="Icon" transform="matrix(7.40694,0,0,7.40694,12.978,6.13563)">
        <g transform="matrix(0.965926,0.258819,-0.258819,0.965926,16.4209,0.0225487)">
            <g transform="matrix(0.981786,0,0,1,-24.6037,2.47944)">
                <rect x="28.044" y="11.887" width="5.967" height="2.089"/>
            </g>
            <g transform="matrix(0.981786,0,0,1,-24.6037,25.2901)">
                <rect x="28.044" y="11.887" width="5.967" height="2.089"/>
            </g>
            <g transform="matrix(1.03346,0,-1.14737e-16,1.06192,-1.55466,-1.9564)">
                <path d="M3.614,11.214L3.631,11.209L3.648,11.205L3.665,11.201L3.682,11.197L3.699,11.193L3.716,11.189L3.733,11.186L3.751,11.182L3.768,11.179L3.785,11.175L3.803,11.172L3.82,11.169L3.837,11.166L3.855,11.163L3.872,11.16L3.89,11.157L3.907,11.154L3.925,11.152L3.943,11.149L3.96,11.147L3.978,11.145L3.996,11.143L4.014,11.141L4.031,11.139L4.049,11.137L4.067,11.135L4.085,11.133L4.103,11.132L4.121,11.131L4.139,11.129L4.157,11.128L4.175,11.127L4.193,11.126L4.211,11.125L4.229,11.125L4.248,11.124L4.266,11.123L4.284,11.123L4.302,11.123L4.321,11.123L4.339,11.123L10.008,11.123L10.026,11.123L10.044,11.123L10.063,11.123L10.081,11.123L10.099,11.124L10.117,11.125L10.135,11.125L10.154,11.126L10.172,11.127L10.19,11.128L10.208,11.129L10.226,11.131L10.262,11.133L10.297,11.137L10.333,11.141L10.369,11.145L10.404,11.149L10.439,11.154L10.474,11.16L10.509,11.166L10.544,11.172L10.579,11.179L10.613,11.186L10.648,11.193L10.682,11.201L10.716,11.209L10.75,11.218L10.783,11.227L10.817,11.237L10.85,11.247L10.884,11.257L10.917,11.268L10.949,11.279L10.982,11.29L11.014,11.302L11.047,11.314L11.079,11.327L11.111,11.339L11.142,11.353L11.174,11.366L11.205,11.38L11.236,11.395L11.267,11.409L11.298,11.425L11.328,11.44L11.358,11.456L11.388,11.472L11.418,11.488L11.448,11.505L11.477,11.522L11.506,11.54L11.535,11.557L11.564,11.576L11.592,11.594L11.62,11.613L11.648,11.632L11.676,11.651L11.703,11.671L11.73,11.691L11.757,11.711L11.784,11.732L11.81,11.753L11.836,11.774L11.862,11.796L11.888,11.817L11.913,11.84L11.938,11.862L11.963,11.885L11.988,11.908L12.012,11.931L12.036,11.954L12.059,11.978L12.083,12.002L12.106,12.027L12.128,12.051L12.151,12.076L12.173,12.101L12.195,12.127L12.216,12.153L12.237,12.178L12.258,12.205L12.279,12.231L12.299,12.258L12.319,12.285L12.339,12.312L12.358,12.339L12.377,12.367L12.395,12.395L12.414,12.423L12.432,12.451L12.449,12.48L12.467,12.508L12.483,12.537L12.5,12.567L12.516,12.596L12.532,12.626L12.547,12.656L12.563,12.686L12.577,12.716L12.592,12.746L12.606,12.777L12.619,12.808L12.633,12.839L12.646,12.87L12.658,12.901L12.67,12.933L12.682,12.965L12.693,12.997L12.704,13.029L12.715,13.061L12.725,13.094L12.735,13.126L12.744,13.159L12.753,13.192L12.762,13.225L12.77,13.258L12.777,13.292L12.785,13.325L12.792,13.359L12.798,13.393L12.804,13.427L12.81,13.461L12.815,13.496L12.82,13.53L12.824,13.565L12.828,13.599L12.831,13.634L12.834,13.669L12.835,13.686L12.837,13.704L12.838,13.722L12.839,13.739L12.839,13.757L12.84,13.775L12.841,13.792L12.841,13.81L12.842,13.828L12.842,13.845L12.842,13.863L12.842,13.881L12.842,40.325L12.842,40.343L12.842,40.361L12.842,40.379L12.841,40.396L12.841,40.414L12.84,40.432L12.839,40.449L12.839,40.467L12.838,40.485L12.837,40.502L12.835,40.52L12.834,40.537L12.833,40.555L12.831,40.572L12.829,40.59L12.828,40.607L12.826,40.624L12.824,40.642L12.822,40.659L12.82,40.676L12.817,40.694L12.815,40.711L12.812,40.728L12.81,40.745L12.807,40.762L12.804,40.779L12.801,40.796L12.798,40.813L12.795,40.83L12.792,40.847L12.788,40.864L12.785,40.881L12.781,40.898L12.777,40.914L12.774,40.931L12.77,40.948L12.766,40.965L12.762,40.981L12.757,40.998L12.753,41.014L12.749,41.031L12.744,41.047L12.739,41.064L12.735,41.08L12.73,41.096L12.725,41.113L12.72,41.129L12.715,41.145L12.71,41.161L12.704,41.177L12.699,41.194L12.693,41.21L12.688,41.226L12.682,41.241L12.676,41.257L12.67,41.273L12.664,41.289L12.658,41.305L12.652,41.321L12.646,41.336L12.639,41.352L12.633,41.367L12.626,41.383L12.619,41.399L12.613,41.414L12.606,41.429L12.599,41.445L12.592,41.46L12.585,41.475L12.577,41.49L12.57,41.506L12.563,41.521L12.555,41.536L12.547,41.551L12.54,41.566L12.532,41.581L12.524,41.595L12.516,41.61L12.508,41.625L12.5,41.64L12.492,41.654L12.483,41.669L12.475,41.683L12.467,41.698L12.458,41.712L12.449,41.727L12.441,41.741L12.432,41.755L12.423,41.769L12.414,41.783L12.405,41.798L12.395,41.812L12.386,41.826L12.377,41.839L12.367,41.853L12.358,41.867L12.348,41.881L12.339,41.894L12.329,41.908L12.319,41.922L12.309,41.935L12.299,41.949L12.289,41.962L12.279,41.975L12.269,41.988L12.258,42.002L12.248,42.015L12.237,42.028L12.227,42.041L12.216,42.054L12.206,42.067L12.195,42.079L12.184,42.092L12.173,42.105L12.162,42.117L12.151,42.13L12.14,42.143L12.128,42.155L12.117,42.167L12.106,42.18L12.094,42.192L12.083,42.204L12.071,42.216L12.059,42.228L12.047,42.24L12.036,42.252L12.024,42.264L12.012,42.275L12,42.287L11.988,42.299L11.975,42.31L11.963,42.322L11.951,42.333L11.938,42.344L11.926,42.356L11.913,42.367L11.901,42.378L11.888,42.389L11.875,42.4L11.862,42.411L11.849,42.422L11.836,42.432L11.823,42.443L11.81,42.453L11.797,42.464L11.784,42.474L11.771,42.485L11.757,42.495L11.744,42.505L11.73,42.515L11.717,42.525L11.703,42.535L11.69,42.545L11.676,42.555L11.662,42.565L11.648,42.575L11.634,42.584L11.62,42.594L11.606,42.603L11.592,42.612L11.578,42.622L11.564,42.631L11.549,42.64L11.535,42.649L11.521,42.658L11.506,42.667L11.492,42.675L11.477,42.684L11.462,42.693L11.448,42.701L11.433,42.71L11.418,42.718L11.403,42.726L11.388,42.734L11.373,42.743L11.358,42.751L11.343,42.759L11.328,42.766L11.313,42.774L11.298,42.782L11.282,42.789L11.267,42.797L11.252,42.804L11.236,42.812L11.221,42.819L11.205,42.826L11.19,42.833L11.174,42.84L11.158,42.847L11.142,42.854L11.127,42.86L11.111,42.867L11.095,42.873L11.079,42.88L11.063,42.886L11.047,42.892L11.031,42.898L11.014,42.904L10.998,42.91L10.982,42.916L10.966,42.922L10.949,42.928L10.933,42.933L10.917,42.939L10.9,42.944L10.884,42.949L10.867,42.955L10.85,42.96L10.834,42.965L10.817,42.97L10.8,42.974L10.783,42.979L10.767,42.984L10.75,42.988L10.733,42.993L10.716,42.997L10.699,43.001L10.682,43.005L10.665,43.009L10.648,43.013L10.63,43.017L10.613,43.021L10.596,43.024L10.579,43.028L10.561,43.031L10.544,43.034L10.527,43.038L10.509,43.041L10.492,43.044L10.474,43.046L10.457,43.049L10.439,43.052L10.422,43.054L10.404,43.057L10.386,43.059L10.369,43.062L10.351,43.064L10.333,43.066L10.315,43.068L10.297,43.069L10.28,43.071L10.262,43.073L10.244,43.074L10.226,43.076L10.208,43.077L10.19,43.078L10.172,43.079L10.154,43.08L10.135,43.081L10.117,43.082L10.099,43.082L10.081,43.083L10.063,43.083L10.044,43.084L10.026,43.084L10.008,43.084L4.339,43.084L4.321,43.084L4.302,43.084L4.284,43.083L4.266,43.083L4.248,43.082L4.229,43.082L4.211,43.081L4.193,43.08L4.175,43.079L4.157,43.078L4.139,43.077L4.121,43.076L4.103,43.074L4.085,43.073L4.067,43.071L4.049,43.069L4.031,43.068L4.014,43.066L3.996,43.064L3.978,43.062L3.96,43.059L3.943,43.057L3.925,43.054L3.907,43.052L3.89,43.049L3.872,43.046L3.855,43.044L3.837,43.041L3.82,43.038L3.803,43.034L3.785,43.031L3.768,43.028L3.751,43.024L3.733,43.021L3.716,43.017L3.699,43.013L3.682,43.009L3.665,43.005L3.648,43.001L3.631,42.997L3.614,42.993L3.597,42.988L3.58,42.984L3.563,42.979L3.546,42.974L3.53,42.97L3.513,42.965L3.496,42.96L3.48,42.955L3.463,42.949L3.447,42.944L3.43,42.939L3.414,42.933L3.397,42.928L3.381,42.922L3.365,42.916L3.348,42.91L3.332,42.904L3.316,42.898L3.3,42.892L3.284,42.886L3.268,42.88L3.252,42.873L3.236,42.867L3.22,42.86L3.204,42.854L3.188,42.847L3.173,42.84L3.157,42.833L3.141,42.826L3.126,42.819L3.11,42.812L3.095,42.804L3.08,42.797L3.064,42.789L3.049,42.782L3.034,42.774L3.018,42.766L3.003,42.759L2.988,42.751L2.973,42.743L2.958,42.734L2.943,42.726L2.928,42.718L2.914,42.71L2.899,42.701L2.884,42.693L2.869,42.684L2.855,42.675L2.84,42.667L2.826,42.658L2.812,42.649L2.797,42.64L2.783,42.631L2.769,42.622L2.754,42.612L2.74,42.603L2.726,42.594L2.712,42.584L2.698,42.575L2.685,42.565L2.671,42.555L2.657,42.545L2.643,42.535L2.63,42.525L2.616,42.515L2.603,42.505L2.589,42.495L2.576,42.485L2.563,42.474L2.549,42.464L2.536,42.453L2.523,42.443L2.51,42.432L2.497,42.422L2.484,42.411L2.471,42.4L2.459,42.389L2.446,42.378L2.433,42.367L2.421,42.356L2.408,42.344L2.396,42.333L2.384,42.322L2.371,42.31L2.359,42.299L2.347,42.287L2.335,42.275L2.323,42.264L2.311,42.252L2.299,42.24L2.287,42.228L2.276,42.216L2.264,42.204L2.253,42.192L2.241,42.18L2.23,42.167L2.218,42.155L2.207,42.143L2.196,42.13L2.185,42.117L2.174,42.105L2.163,42.092L2.152,42.079L2.141,42.067L2.13,42.054L2.12,42.041L2.109,42.028L2.099,42.015L2.088,42.002L2.078,41.988L2.068,41.975L2.058,41.962L2.047,41.949L2.037,41.935L2.028,41.922L2.018,41.908L2.008,41.894L1.998,41.881L1.989,41.867L1.979,41.853L1.97,41.839L1.96,41.826L1.951,41.812L1.942,41.798L1.933,41.783L1.924,41.769L1.915,41.755L1.906,41.741L1.897,41.727L1.889,41.712L1.88,41.698L1.872,41.683L1.863,41.669L1.855,41.654L1.847,41.64L1.839,41.625L1.83,41.61L1.822,41.595L1.815,41.581L1.807,41.566L1.799,41.551L1.792,41.536L1.784,41.521L1.777,41.506L1.769,41.49L1.762,41.475L1.755,41.46L1.748,41.445L1.741,41.429L1.734,41.414L1.727,41.399L1.721,41.383L1.714,41.367L1.707,41.352L1.701,41.336L1.695,41.321L1.689,41.305L1.682,41.289L1.676,41.273L1.671,41.257L1.665,41.241L1.659,41.226L1.653,41.21L1.648,41.194L1.642,41.177L1.637,41.161L1.632,41.145L1.627,41.129L1.622,41.113L1.617,41.096L1.612,41.08L1.607,41.064L1.603,41.047L1.598,41.031L1.594,41.014L1.589,40.998L1.585,40.981L1.581,40.965L1.577,40.948L1.573,40.931L1.569,40.914L1.566,40.898L1.562,40.881L1.558,40.864L1.555,40.847L1.552,40.83L1.549,40.813L1.546,40.796L1.543,40.779L1.54,40.762L1.537,40.745L1.534,40.728L1.532,40.711L1.529,40.694L1.527,40.676L1.525,40.659L1.523,40.642L1.521,40.624L1.519,40.607L1.517,40.59L1.516,40.572L1.514,40.555L1.513,40.537L1.511,40.52L1.51,40.502L1.509,40.485L1.508,40.467L1.507,40.449L1.506,40.432L1.506,40.414L1.505,40.396L1.505,40.379L1.505,40.361L1.504,40.343L1.504,40.325L1.504,13.881L1.504,13.863L1.505,13.845L1.505,13.828L1.505,13.81L1.506,13.792L1.506,13.775L1.507,13.757L1.508,13.739L1.509,13.722L1.51,13.704L1.511,13.686L1.513,13.669L1.514,13.651L1.516,13.634L1.517,13.617L1.519,13.599L1.521,13.582L1.523,13.565L1.525,13.547L1.527,13.53L1.529,13.513L1.532,13.496L1.534,13.478L1.537,13.461L1.54,13.444L1.543,13.427L1.546,13.41L1.549,13.393L1.552,13.376L1.555,13.359L1.558,13.342L1.562,13.325L1.566,13.309L1.569,13.292L1.573,13.275L1.577,13.258L1.581,13.242L1.585,13.225L1.589,13.209L1.594,13.192L1.598,13.176L1.603,13.159L1.607,13.143L1.612,13.126L1.617,13.11L1.622,13.094L1.627,13.077L1.632,13.061L1.637,13.045L1.642,13.029L1.648,13.013L1.653,12.997L1.659,12.981L1.665,12.965L1.671,12.949L1.676,12.933L1.682,12.917L1.689,12.901L1.695,12.886L1.701,12.87L1.707,12.854L1.714,12.839L1.721,12.823L1.727,12.808L1.734,12.792L1.741,12.777L1.748,12.762L1.755,12.746L1.762,12.731L1.769,12.716L1.777,12.701L1.784,12.686L1.792,12.671L1.799,12.656L1.807,12.641L1.815,12.626L1.822,12.611L1.83,12.596L1.839,12.581L1.847,12.567L1.855,12.552L1.863,12.537L1.872,12.523L1.88,12.508L1.889,12.494L1.897,12.48L1.906,12.465L1.915,12.451L1.924,12.437L1.933,12.423L1.942,12.409L1.951,12.395L1.96,12.381L1.97,12.367L1.979,12.353L1.989,12.339L1.998,12.325L2.008,12.312L2.018,12.298L2.028,12.285L2.037,12.271L2.047,12.258L2.058,12.244L2.068,12.231L2.078,12.218L2.088,12.205L2.099,12.191L2.109,12.178L2.12,12.165L2.13,12.153L2.141,12.14L2.152,12.127L2.163,12.114L2.174,12.101L2.185,12.089L2.196,12.076L2.207,12.064L2.218,12.051L2.23,12.039L2.241,12.027L2.253,12.015L2.264,12.002L2.276,11.99L2.287,11.978L2.299,11.966L2.311,11.954L2.323,11.943L2.335,11.931L2.347,11.919L2.359,11.908L2.371,11.896L2.384,11.885L2.396,11.873L2.408,11.862L2.421,11.851L2.433,11.84L2.446,11.828L2.459,11.817L2.471,11.806L2.484,11.796L2.497,11.785L2.51,11.774L2.523,11.763L2.536,11.753L2.549,11.742L2.563,11.732L2.576,11.722L2.589,11.711L2.603,11.701L2.616,11.691L2.63,11.681L2.643,11.671L2.657,11.661L2.671,11.651L2.685,11.641L2.698,11.632L2.712,11.622L2.726,11.613L2.74,11.603L2.754,11.594L2.769,11.585L2.783,11.576L2.797,11.566L2.812,11.557L2.826,11.548L2.84,11.54L2.855,11.531L2.869,11.522L2.884,11.514L2.899,11.505L2.914,11.497L2.928,11.488L2.943,11.48L2.958,11.472L2.973,11.464L2.988,11.456L3.003,11.448L3.018,11.44L3.034,11.432L3.049,11.425L3.064,11.417L3.08,11.409L3.095,11.402L3.11,11.395L3.126,11.388L3.141,11.38L3.157,11.373L3.173,11.366L3.188,11.36L3.204,11.353L3.22,11.346L3.236,11.339L3.252,11.333L3.268,11.327L3.284,11.32L3.3,11.314L3.316,11.308L3.332,11.302L3.348,11.296L3.365,11.29L3.381,11.284L3.397,11.279L3.414,11.273L3.43,11.268L3.447,11.262L3.463,11.257L3.48,11.252L3.496,11.247L3.513,11.242L3.53,11.237L3.546,11.232L3.563,11.227L3.58,11.223L3.597,11.218L3.614,11.214ZM4.046,12.856L4.039,12.858L4.033,12.86L4.027,12.861L4.02,12.863L4.014,12.865L4.008,12.867L4.001,12.869L3.995,12.871L3.989,12.873L3.983,12.875L3.976,12.877L3.97,12.879L3.964,12.882L3.958,12.884L3.952,12.886L3.945,12.888L3.939,12.891L3.933,12.893L3.927,12.896L3.921,12.898L3.915,12.9L3.909,12.903L3.903,12.906L3.897,12.908L3.891,12.911L3.885,12.913L3.879,12.916L3.873,12.919L3.867,12.922L3.861,12.924L3.855,12.927L3.849,12.93L3.843,12.933L3.837,12.936L3.832,12.939L3.826,12.942L3.82,12.945L3.814,12.948L3.808,12.951L3.803,12.954L3.797,12.958L3.791,12.961L3.786,12.964L3.78,12.967L3.774,12.971L3.769,12.974L3.763,12.977L3.757,12.981L3.752,12.984L3.746,12.988L3.741,12.991L3.735,12.995L3.73,12.998L3.724,13.002L3.719,13.006L3.713,13.009L3.708,13.013L3.703,13.017L3.697,13.021L3.692,13.024L3.687,13.028L3.681,13.032L3.676,13.036L3.671,13.04L3.666,13.044L3.66,13.048L3.655,13.052L3.65,13.056L3.645,13.06L3.64,13.064L3.635,13.068L3.63,13.072L3.625,13.077L3.62,13.081L3.615,13.085L3.61,13.089L3.605,13.094L3.6,13.098L3.595,13.103L3.59,13.107L3.586,13.111L3.581,13.116L3.576,13.12L3.571,13.125L3.566,13.129L3.562,13.134L3.557,13.139L3.553,13.143L3.548,13.148L3.543,13.153L3.539,13.157L3.534,13.162L3.53,13.167L3.525,13.172L3.521,13.176L3.517,13.181L3.512,13.186L3.508,13.191L3.504,13.196L3.499,13.201L3.495,13.206L3.491,13.211L3.487,13.216L3.483,13.221L3.479,13.226L3.474,13.231L3.47,13.236L3.466,13.241L3.462,13.246L3.458,13.252L3.455,13.257L3.451,13.262L3.447,13.267L3.443,13.272L3.439,13.278L3.435,13.283L3.432,13.288L3.428,13.294L3.424,13.299L3.421,13.304L3.417,13.31L3.414,13.315L3.41,13.321L3.407,13.326L3.403,13.332L3.4,13.337L3.396,13.343L3.393,13.348L3.39,13.354L3.387,13.359L3.383,13.365L3.38,13.371L3.377,13.376L3.374,13.382L3.371,13.387L3.368,13.393L3.365,13.399L3.362,13.405L3.359,13.41L3.356,13.416L3.353,13.422L3.35,13.428L3.347,13.433L3.344,13.439L3.342,13.445L3.339,13.451L3.336,13.457L3.334,13.463L3.331,13.468L3.329,13.474L3.326,13.48L3.324,13.486L3.321,13.492L3.319,13.498L3.316,13.504L3.314,13.51L3.312,13.516L3.31,13.522L3.307,13.528L3.305,13.534L3.303,13.541L3.301,13.547L3.299,13.553L3.297,13.559L3.295,13.565L3.293,13.571L3.291,13.577L3.289,13.584L3.287,13.59L3.285,13.596L3.284,13.602L3.282,13.608L3.28,13.615L3.279,13.621L3.277,13.627L3.275,13.634L3.274,13.64L3.272,13.646L3.271,13.653L3.27,13.659L3.268,13.666L3.267,13.672L3.266,13.678L3.264,13.685L3.263,13.691L3.262,13.698L3.261,13.704L3.26,13.711L3.259,13.718L3.258,13.724L3.257,13.731L3.256,13.737L3.255,13.744L3.254,13.751L3.253,13.757L3.252,13.764L3.252,13.771L3.251,13.777L3.25,13.784L3.25,13.791L3.249,13.798L3.249,13.805L3.248,13.811L3.248,13.818L3.248,13.825L3.247,13.832L3.247,13.839L3.247,13.846L3.246,13.853L3.246,13.86L3.246,13.867L3.246,13.874L3.246,13.884L3.246,40.322L3.246,40.346L3.247,40.374L3.249,40.402L3.251,40.429L3.254,40.456L3.258,40.482L3.262,40.508L3.267,40.534L3.272,40.56L3.279,40.585L3.285,40.61L3.293,40.635L3.301,40.66L3.31,40.684L3.319,40.708L3.329,40.732L3.339,40.755L3.35,40.779L3.362,40.802L3.374,40.824L3.387,40.847L3.4,40.869L3.414,40.891L3.428,40.913L3.443,40.934L3.459,40.955L3.474,40.975L3.491,40.995L3.508,41.015L3.525,41.035L3.543,41.054L3.562,41.072L3.581,41.09L3.6,41.108L3.62,41.125L3.64,41.142L3.66,41.158L3.681,41.174L3.703,41.19L3.724,41.204L3.746,41.219L3.769,41.232L3.791,41.245L3.814,41.258L3.837,41.27L3.861,41.282L3.885,41.293L3.909,41.303L3.933,41.313L3.958,41.322L3.983,41.331L4.008,41.339L4.033,41.347L4.059,41.354L4.084,41.36L4.111,41.366L4.137,41.371L4.164,41.375L4.191,41.379L4.219,41.382L4.246,41.385L4.274,41.387L4.303,41.388L4.332,41.389L4.342,41.389L10.005,41.389L10.015,41.389L10.022,41.389L10.029,41.388L10.037,41.388L10.044,41.388L10.051,41.388L10.058,41.388L10.065,41.387L10.072,41.387L10.079,41.386L10.087,41.386L10.094,41.386L10.1,41.385L10.107,41.384L10.114,41.384L10.121,41.383L10.128,41.382L10.135,41.382L10.142,41.381L10.149,41.38L10.155,41.379L10.162,41.378L10.169,41.377L10.176,41.376L10.183,41.375L10.189,41.374L10.196,41.373L10.203,41.372L10.209,41.371L10.216,41.37L10.222,41.368L10.229,41.367L10.236,41.366L10.242,41.364L10.249,41.363L10.255,41.362L10.262,41.36L10.269,41.358L10.275,41.357L10.281,41.355L10.288,41.354L10.294,41.352L10.301,41.35L10.307,41.349L10.314,41.347L10.32,41.345L10.326,41.343L10.333,41.341L10.339,41.339L10.345,41.337L10.351,41.335L10.358,41.333L10.364,41.331L10.37,41.329L10.376,41.327L10.383,41.325L10.389,41.322L10.395,41.32L10.401,41.318L10.407,41.316L10.413,41.313L10.42,41.311L10.426,41.308L10.432,41.306L10.438,41.303L10.444,41.301L10.45,41.298L10.456,41.295L10.462,41.293L10.468,41.29L10.474,41.287L10.48,41.285L10.486,41.282L10.492,41.279L10.497,41.276L10.503,41.273L10.509,41.27L10.515,41.267L10.521,41.264L10.527,41.261L10.532,41.258L10.538,41.255L10.544,41.252L10.55,41.249L10.555,41.246L10.561,41.242L10.567,41.239L10.572,41.236L10.578,41.232L10.584,41.229L10.589,41.226L10.595,41.222L10.6,41.219L10.606,41.215L10.611,41.212L10.617,41.208L10.622,41.204L10.628,41.201L10.633,41.197L10.639,41.193L10.644,41.189L10.649,41.186L10.655,41.182L10.66,41.178L10.665,41.174L10.671,41.17L10.676,41.166L10.681,41.162L10.686,41.158L10.691,41.154L10.696,41.15L10.702,41.146L10.707,41.142L10.712,41.138L10.717,41.134L10.722,41.129L10.727,41.125L10.732,41.121L10.737,41.117L10.742,41.112L10.747,41.108L10.752,41.104L10.756,41.099L10.761,41.095L10.766,41.09L10.771,41.086L10.775,41.081L10.78,41.077L10.785,41.072L10.789,41.068L10.794,41.063L10.799,41.058L10.803,41.054L10.808,41.049L10.812,41.044L10.817,41.039L10.821,41.035L10.826,41.03L10.83,41.025L10.834,41.02L10.839,41.015L10.843,41.01L10.847,41.005L10.852,41L10.856,40.995L10.86,40.99L10.864,40.985L10.868,40.98L10.872,40.975L10.876,40.97L10.88,40.965L10.884,40.96L10.888,40.955L10.892,40.949L10.896,40.944L10.9,40.939L10.904,40.934L10.907,40.928L10.911,40.923L10.915,40.918L10.919,40.913L10.922,40.907L10.926,40.902L10.929,40.896L10.933,40.891L10.936,40.886L10.94,40.88L10.943,40.875L10.947,40.869L10.95,40.864L10.954,40.858L10.957,40.852L10.96,40.847L10.963,40.841L10.967,40.836L10.97,40.83L10.973,40.825L10.976,40.819L10.979,40.813L10.982,40.807L10.985,40.802L10.988,40.796L10.991,40.79L10.994,40.785L10.997,40.779L10.999,40.773L11.002,40.767L11.005,40.761L11.008,40.755L11.01,40.75L11.013,40.744L11.015,40.738L11.018,40.732L11.02,40.726L11.023,40.72L11.025,40.714L11.028,40.708L11.03,40.702L11.033,40.696L11.035,40.69L11.037,40.684L11.039,40.678L11.041,40.672L11.044,40.666L11.046,40.66L11.048,40.654L11.05,40.647L11.052,40.641L11.054,40.635L11.056,40.629L11.058,40.623L11.059,40.617L11.061,40.61L11.063,40.604L11.065,40.598L11.066,40.592L11.068,40.585L11.07,40.579L11.071,40.573L11.073,40.566L11.074,40.56L11.076,40.553L11.077,40.547L11.078,40.541L11.08,40.534L11.081,40.528L11.082,40.521L11.083,40.515L11.085,40.508L11.086,40.502L11.087,40.495L11.088,40.489L11.089,40.482L11.09,40.476L11.091,40.469L11.092,40.462L11.093,40.456L11.093,40.449L11.094,40.442L11.095,40.436L11.096,40.429L11.096,40.422L11.097,40.415L11.097,40.409L11.098,40.402L11.098,40.395L11.099,40.388L11.099,40.381L11.099,40.374L11.1,40.367L11.1,40.36L11.1,40.353L11.1,40.346L11.1,40.339L11.101,40.332L11.101,40.323L11.101,13.884L11.101,13.874L11.1,13.867L11.1,13.86L11.1,13.853L11.1,13.846L11.1,13.839L11.099,13.832L11.099,13.825L11.099,13.818L11.098,13.811L11.098,13.805L11.097,13.798L11.097,13.791L11.096,13.784L11.096,13.777L11.095,13.771L11.094,13.764L11.093,13.757L11.093,13.751L11.092,13.744L11.091,13.737L11.09,13.731L11.089,13.724L11.088,13.718L11.087,13.711L11.086,13.704L11.085,13.698L11.083,13.691L11.082,13.685L11.081,13.678L11.08,13.672L11.078,13.666L11.077,13.659L11.076,13.653L11.074,13.646L11.073,13.64L11.071,13.634L11.07,13.627L11.068,13.621L11.066,13.615L11.065,13.608L11.063,13.602L11.061,13.596L11.059,13.59L11.058,13.584L11.056,13.577L11.054,13.571L11.052,13.565L11.05,13.559L11.048,13.553L11.046,13.547L11.044,13.54L11.041,13.534L11.039,13.528L11.037,13.522L11.035,13.516L11.033,13.51L11.03,13.504L11.028,13.498L11.025,13.492L11.023,13.486L11.02,13.48L11.018,13.474L11.015,13.469L11.013,13.463L11.01,13.457L11.008,13.451L11.005,13.445L11.002,13.439L10.999,13.433L10.997,13.428L10.994,13.422L10.991,13.416L10.988,13.41L10.985,13.405L10.982,13.399L10.979,13.393L10.976,13.387L10.973,13.382L10.97,13.376L10.967,13.37L10.963,13.365L10.96,13.359L10.957,13.354L10.953,13.348L10.95,13.343L10.947,13.337L10.943,13.332L10.94,13.326L10.936,13.321L10.933,13.315L10.929,13.31L10.926,13.304L10.922,13.299L10.919,13.294L10.915,13.288L10.911,13.283L10.907,13.278L10.904,13.272L10.9,13.267L10.896,13.262L10.892,13.257L10.888,13.252L10.884,13.246L10.88,13.241L10.876,13.236L10.872,13.231L10.868,13.226L10.864,13.221L10.86,13.216L10.856,13.211L10.851,13.206L10.847,13.201L10.843,13.196L10.839,13.191L10.834,13.186L10.83,13.181L10.826,13.176L10.821,13.172L10.817,13.167L10.812,13.162L10.808,13.157L10.803,13.153L10.799,13.148L10.794,13.143L10.789,13.139L10.785,13.134L10.78,13.129L10.775,13.125L10.771,13.12L10.766,13.116L10.761,13.111L10.756,13.107L10.751,13.103L10.747,13.098L10.742,13.094L10.737,13.089L10.732,13.085L10.727,13.081L10.722,13.077L10.717,13.073L10.712,13.068L10.707,13.064L10.702,13.06L10.697,13.056L10.691,13.052L10.686,13.048L10.681,13.044L10.676,13.04L10.67,13.036L10.665,13.032L10.66,13.028L10.655,13.024L10.649,13.021L10.644,13.017L10.639,13.013L10.633,13.009L10.628,13.006L10.622,13.002L10.617,12.998L10.611,12.995L10.606,12.991L10.6,12.988L10.595,12.984L10.589,12.981L10.584,12.977L10.578,12.974L10.572,12.971L10.567,12.967L10.561,12.964L10.555,12.961L10.55,12.958L10.544,12.954L10.538,12.951L10.532,12.948L10.527,12.945L10.521,12.942L10.515,12.939L10.509,12.936L10.503,12.933L10.498,12.93L10.492,12.927L10.486,12.924L10.48,12.922L10.474,12.919L10.468,12.916L10.462,12.913L10.456,12.911L10.45,12.908L10.444,12.906L10.438,12.903L10.432,12.9L10.426,12.898L10.42,12.896L10.413,12.893L10.407,12.891L10.401,12.888L10.395,12.886L10.389,12.884L10.383,12.882L10.376,12.879L10.37,12.877L10.364,12.875L10.358,12.873L10.351,12.871L10.345,12.869L10.339,12.867L10.333,12.865L10.326,12.863L10.32,12.861L10.314,12.86L10.307,12.858L10.301,12.856L10.294,12.854L10.288,12.853L10.281,12.851L10.275,12.849L10.269,12.848L10.262,12.846L10.255,12.845L10.249,12.843L10.242,12.842L10.236,12.841L10.229,12.839L10.223,12.838L10.216,12.837L10.209,12.835L10.203,12.834L10.196,12.833L10.189,12.832L10.183,12.831L10.176,12.83L10.169,12.829L10.162,12.828L10.155,12.827L10.149,12.826L10.142,12.825L10.135,12.825L10.128,12.824L10.121,12.823L10.114,12.822L10.107,12.822L10.1,12.821L10.093,12.821L10.086,12.82L10.079,12.82L10.072,12.819L10.065,12.819L10.058,12.819L10.051,12.818L10.044,12.818L10.037,12.818L10.03,12.818L10.022,12.818L10.015,12.818L10.005,12.818L4.342,12.818L4.332,12.818L4.324,12.818L4.317,12.818L4.31,12.818L4.303,12.818L4.296,12.818L4.288,12.819L4.281,12.819L4.274,12.819L4.267,12.82L4.26,12.82L4.253,12.821L4.246,12.821L4.239,12.822L4.232,12.823L4.225,12.823L4.219,12.824L4.212,12.825L4.205,12.825L4.198,12.826L4.191,12.827L4.184,12.828L4.178,12.829L4.171,12.83L4.164,12.831L4.157,12.832L4.151,12.833L4.144,12.834L4.137,12.835L4.131,12.837L4.124,12.838L4.117,12.839L4.111,12.841L4.104,12.842L4.098,12.843L4.091,12.845L4.085,12.846L4.078,12.848L4.072,12.849L4.065,12.851L4.059,12.853L4.052,12.854L4.046,12.856Z"/>
            </g>
        </g>
        <g>
            <g transform="matrix(1,0,0,1,-0.0326362,-0.15243)">
                <path d="M46.497,2L46.519,2L46.542,2.001L46.564,2.001L46.586,2.002L46.609,2.003L46.631,2.003L46.653,2.005L46.675,2.006L46.698,2.007L46.72,2.009L46.742,2.01L46.764,2.012L46.786,2.014L46.808,2.016L46.83,2.018L46.852,2.02L46.873,2.023L46.895,2.025L46.917,2.028L46.939,2.031L46.96,2.034L46.982,2.037L47.004,2.04L47.025,2.043L47.047,2.047L47.068,2.051L47.09,2.054L47.111,2.058L47.132,2.062L47.154,2.066L47.175,2.071L47.196,2.075L47.217,2.08L47.238,2.084L47.259,2.089L47.28,2.094L47.301,2.099L47.322,2.104L47.343,2.11L47.364,2.115L47.385,2.121L47.405,2.126L47.426,2.132L47.447,2.138L47.467,2.144L47.488,2.15L47.508,2.156L47.528,2.163L47.549,2.169L47.569,2.176L47.589,2.183L47.609,2.19L47.63,2.197L47.65,2.204L47.67,2.211L47.69,2.219L47.709,2.226L47.729,2.234L47.749,2.241L47.769,2.249L47.788,2.257L47.808,2.265L47.828,2.273L47.847,2.282L47.866,2.29L47.886,2.299L47.905,2.307L47.924,2.316L47.943,2.325L47.963,2.334L47.982,2.343L48.001,2.352L48.019,2.362L48.038,2.371L48.057,2.381L48.076,2.39L48.094,2.4L48.113,2.41L48.132,2.42L48.15,2.43L48.168,2.44L48.187,2.451L48.205,2.461L48.223,2.472L48.241,2.482L48.259,2.493L48.277,2.504L48.295,2.515L48.313,2.526L48.331,2.537L48.348,2.548L48.366,2.56L48.383,2.571L48.401,2.583L48.418,2.594L48.436,2.606L48.453,2.618L48.47,2.63L48.487,2.642L48.504,2.654L48.521,2.666L48.538,2.679L48.555,2.691L48.571,2.704L48.588,2.717L48.605,2.729L48.621,2.742L48.637,2.755L48.654,2.768L48.67,2.781L48.686,2.795L48.702,2.808L48.718,2.821L48.734,2.835L48.75,2.849L48.766,2.862L48.781,2.876L48.797,2.89L48.812,2.904L48.828,2.918L48.843,2.932L48.858,2.946L48.873,2.961L48.888,2.975L48.903,2.99L48.918,3.004L48.933,3.019L48.948,3.034L48.962,3.049L48.977,3.064L48.991,3.079L49.006,3.094L49.02,3.109L49.034,3.125L49.048,3.14L49.062,3.155L49.076,3.171L49.09,3.187L49.104,3.202L49.117,3.218L49.131,3.234L49.144,3.25L49.158,3.266L49.171,3.282L49.184,3.299L49.197,3.315L49.21,3.331L49.223,3.348L49.236,3.364L49.248,3.381L49.261,3.398L49.273,3.414L49.286,3.431L49.298,3.448L49.31,3.465L49.322,3.482L49.334,3.499L49.346,3.517L49.358,3.534L49.37,3.551L49.381,3.569L49.393,3.586L49.404,3.604L49.415,3.622L49.426,3.639L49.437,3.657L49.448,3.675L49.459,3.693L49.47,3.711L49.481,3.729L49.491,3.747L49.502,3.766L49.512,3.784L49.522,3.802L49.532,3.821L49.542,3.839L49.552,3.858L49.562,3.876L49.572,3.895L49.581,3.914L49.59,3.933L49.6,3.952L49.609,3.971L49.618,3.99L49.627,4.009L49.636,4.028L49.645,4.047L49.653,4.066L49.662,4.086L49.67,4.105L49.679,4.125L49.687,4.144L49.695,4.164L49.703,4.183L49.711,4.203L49.719,4.223L49.726,4.243L49.734,4.263L49.741,4.283L49.748,4.303L49.755,4.323L49.762,4.343L49.769,4.363L49.776,4.383L49.783,4.403L49.789,4.424L49.796,4.444L49.802,4.465L49.808,4.485L49.814,4.506L49.82,4.526L49.826,4.547L49.832,4.568L49.837,4.588L49.843,4.609L49.848,4.63L49.853,4.651L49.858,4.672L49.863,4.693L49.868,4.714L49.873,4.735L49.877,4.756L49.882,4.777L49.886,4.799L49.89,4.82L49.894,4.841L49.898,4.863L49.902,4.884L49.905,4.905L49.909,4.927L49.912,4.949L49.915,4.97L49.918,4.992L49.921,5.013L49.924,5.035L49.927,5.057L49.93,5.079L49.932,5.101L49.934,5.122L49.936,5.144L49.938,5.166L49.94,5.188L49.942,5.21L49.944,5.233L49.945,5.255L49.946,5.277L49.948,5.299L49.949,5.321L49.95,5.344L49.95,5.366L49.951,5.388L49.952,5.411L49.952,5.433L49.952,5.455L49.952,5.478L49.952,46.184L36.041,46.184L36.041,5.478L36.041,5.455L36.041,5.433L36.041,5.411L36.042,5.388L36.043,5.366L36.043,5.344L36.044,5.321L36.045,5.299L36.047,5.277L36.048,5.255L36.049,5.233L36.051,5.21L36.053,5.188L36.055,5.166L36.057,5.144L36.059,5.122L36.061,5.101L36.063,5.079L36.066,5.057L36.069,5.035L36.072,5.013L36.075,4.992L36.078,4.97L36.081,4.949L36.084,4.927L36.088,4.905L36.091,4.884L36.095,4.863L36.099,4.841L36.103,4.82L36.107,4.799L36.112,4.777L36.116,4.756L36.12,4.735L36.125,4.714L36.13,4.693L36.135,4.672L36.14,4.651L36.145,4.63L36.15,4.609L36.156,4.588L36.161,4.568L36.167,4.547L36.173,4.526L36.179,4.506L36.185,4.485L36.191,4.465L36.197,4.444L36.204,4.424L36.21,4.403L36.217,4.383L36.224,4.363L36.231,4.343L36.238,4.323L36.245,4.303L36.252,4.283L36.259,4.263L36.267,4.243L36.274,4.223L36.282,4.203L36.29,4.183L36.298,4.164L36.306,4.144L36.314,4.125L36.323,4.105L36.331,4.086L36.34,4.066L36.348,4.047L36.357,4.028L36.366,4.009L36.375,3.99L36.384,3.971L36.393,3.952L36.403,3.933L36.412,3.914L36.422,3.895L36.431,3.876L36.441,3.858L36.451,3.839L36.461,3.821L36.471,3.802L36.481,3.784L36.491,3.766L36.502,3.747L36.512,3.729L36.523,3.711L36.534,3.693L36.545,3.675L36.556,3.657L36.567,3.639L36.578,3.622L36.589,3.604L36.6,3.586L36.612,3.569L36.623,3.551L36.635,3.534L36.647,3.517L36.659,3.499L36.671,3.482L36.683,3.465L36.695,3.448L36.707,3.431L36.72,3.414L36.732,3.398L36.745,3.381L36.757,3.364L36.77,3.348L36.783,3.331L36.796,3.315L36.809,3.299L36.822,3.282L36.835,3.266L36.849,3.25L36.862,3.234L36.876,3.218L36.889,3.202L36.903,3.187L36.917,3.171L36.931,3.155L36.945,3.14L36.959,3.125L36.973,3.109L36.987,3.094L37.002,3.079L37.016,3.064L37.031,3.049L37.045,3.034L37.06,3.019L37.075,3.004L37.09,2.99L37.105,2.975L37.12,2.961L37.135,2.946L37.15,2.932L37.165,2.918L37.181,2.904L37.196,2.89L37.212,2.876L37.227,2.862L37.243,2.849L37.259,2.835L37.275,2.821L37.291,2.808L37.307,2.795L37.323,2.781L37.339,2.768L37.356,2.755L37.372,2.742L37.388,2.729L37.405,2.717L37.422,2.704L37.438,2.691L37.455,2.679L37.472,2.666L37.489,2.654L37.506,2.642L37.523,2.63L37.54,2.618L37.557,2.606L37.575,2.594L37.592,2.583L37.61,2.571L37.627,2.56L37.645,2.548L37.662,2.537L37.68,2.526L37.698,2.515L37.716,2.504L37.734,2.493L37.752,2.482L37.77,2.472L37.788,2.461L37.806,2.451L37.825,2.44L37.843,2.43L37.861,2.42L37.88,2.41L37.899,2.4L37.917,2.39L37.936,2.381L37.955,2.371L37.974,2.362L37.992,2.352L38.011,2.343L38.03,2.334L38.05,2.325L38.069,2.316L38.088,2.307L38.107,2.299L38.127,2.29L38.146,2.282L38.165,2.273L38.185,2.265L38.205,2.257L38.224,2.249L38.244,2.241L38.264,2.234L38.284,2.226L38.303,2.219L38.323,2.211L38.343,2.204L38.363,2.197L38.384,2.19L38.404,2.183L38.424,2.176L38.444,2.169L38.465,2.163L38.485,2.156L38.505,2.15L38.526,2.144L38.546,2.138L38.567,2.132L38.588,2.126L38.608,2.121L38.629,2.115L38.65,2.11L38.671,2.104L38.692,2.099L38.713,2.094L38.734,2.089L38.755,2.084L38.776,2.08L38.797,2.075L38.818,2.071L38.839,2.066L38.861,2.062L38.882,2.058L38.903,2.054L38.925,2.051L38.946,2.047L38.968,2.043L38.989,2.04L39.011,2.037L39.033,2.034L39.054,2.031L39.076,2.028L39.098,2.025L39.12,2.023L39.141,2.02L39.163,2.018L39.185,2.016L39.207,2.014L39.229,2.012L39.251,2.01L39.273,2.009L39.295,2.007L39.318,2.006L39.34,2.005L39.362,2.003L39.384,2.003L39.407,2.002L39.429,2.001L39.451,2.001L39.474,2L39.496,2L39.519,2L46.474,2L46.497,2ZM39.522,4L39.509,4L39.499,4L39.489,4L39.48,4.001L39.47,4.001L39.46,4.001L39.451,4.002L39.441,4.002L39.432,4.002L39.422,4.003L39.413,4.004L39.403,4.004L39.394,4.005L39.384,4.006L39.375,4.007L39.366,4.008L39.356,4.009L39.347,4.01L39.338,4.011L39.328,4.012L39.319,4.013L39.31,4.014L39.301,4.016L39.292,4.017L39.283,4.019L39.274,4.02L39.264,4.022L39.255,4.023L39.246,4.025L39.237,4.026L39.228,4.028L39.219,4.03L39.211,4.032L39.202,4.034L39.193,4.036L39.184,4.038L39.175,4.04L39.166,4.042L39.157,4.044L39.149,4.046L39.14,4.049L39.131,4.051L39.123,4.053L39.114,4.056L39.105,4.058L39.097,4.061L39.088,4.063L39.079,4.066L39.071,4.069L39.062,4.072L39.054,4.074L39.045,4.077L39.037,4.08L39.028,4.083L39.02,4.086L39.011,4.089L39.003,4.092L38.995,4.095L38.986,4.099L38.978,4.102L38.97,4.105L38.961,4.108L38.953,4.112L38.945,4.115L38.937,4.119L38.929,4.122L38.921,4.126L38.912,4.13L38.904,4.133L38.896,4.137L38.888,4.141L38.88,4.145L38.872,4.149L38.864,4.153L38.856,4.157L38.848,4.161L38.84,4.165L38.832,4.169L38.824,4.173L38.817,4.177L38.809,4.182L38.801,4.186L38.793,4.19L38.785,4.195L38.778,4.199L38.77,4.204L38.762,4.208L38.755,4.213L38.747,4.218L38.74,4.222L38.732,4.227L38.724,4.232L38.717,4.237L38.709,4.241L38.702,4.246L38.695,4.251L38.687,4.256L38.68,4.262L38.673,4.267L38.665,4.272L38.658,4.277L38.651,4.282L38.643,4.288L38.636,4.293L38.629,4.298L38.622,4.304L38.615,4.309L38.608,4.315L38.601,4.32L38.594,4.326L38.587,4.331L38.58,4.337L38.573,4.343L38.566,4.349L38.56,4.354L38.553,4.36L38.546,4.366L38.539,4.372L38.533,4.378L38.526,4.384L38.519,4.39L38.513,4.396L38.506,4.402L38.5,4.408L38.493,4.414L38.487,4.421L38.48,4.427L38.474,4.433L38.468,4.44L38.462,4.446L38.455,4.452L38.449,4.459L38.443,4.465L38.437,4.472L38.431,4.479L38.425,4.485L38.419,4.492L38.413,4.498L38.407,4.505L38.401,4.512L38.395,4.519L38.389,4.525L38.384,4.532L38.378,4.539L38.372,4.546L38.366,4.553L38.361,4.56L38.355,4.567L38.35,4.574L38.344,4.581L38.339,4.588L38.334,4.596L38.328,4.603L38.323,4.61L38.318,4.617L38.313,4.624L38.307,4.632L38.302,4.639L38.297,4.646L38.292,4.654L38.287,4.661L38.282,4.669L38.277,4.676L38.273,4.684L38.268,4.691L38.263,4.699L38.258,4.706L38.254,4.714L38.249,4.721L38.244,4.729L38.24,4.737L38.235,4.745L38.231,4.752L38.227,4.76L38.222,4.768L38.218,4.776L38.214,4.784L38.21,4.792L38.205,4.799L38.201,4.807L38.197,4.815L38.193,4.823L38.189,4.831L38.185,4.839L38.182,4.847L38.178,4.855L38.174,4.863L38.17,4.872L38.167,4.88L38.163,4.888L38.16,4.896L38.156,4.904L38.153,4.913L38.149,4.921L38.146,4.929L38.143,4.937L38.139,4.946L38.136,4.954L38.133,4.962L38.13,4.971L38.127,4.979L38.124,4.987L38.121,4.996L38.118,5.005L38.115,5.013L38.112,5.022L38.11,5.03L38.107,5.039L38.104,5.047L38.102,5.056L38.099,5.064L38.097,5.073L38.094,5.082L38.092,5.091L38.089,5.099L38.087,5.108L38.085,5.117L38.083,5.125L38.081,5.134L38.079,5.143L38.077,5.152L38.075,5.161L38.073,5.17L38.071,5.179L38.069,5.188L38.067,5.197L38.066,5.206L38.064,5.215L38.062,5.224L38.061,5.233L38.059,5.242L38.058,5.251L38.057,5.26L38.055,5.269L38.054,5.278L38.053,5.288L38.052,5.297L38.051,5.306L38.049,5.316L38.049,5.325L38.048,5.334L38.047,5.343L38.046,5.353L38.045,5.362L38.044,5.372L38.044,5.381L38.043,5.391L38.043,5.401L38.042,5.41L38.042,5.42L38.042,5.429L38.041,5.439L38.041,5.449L38.041,5.458L38.041,5.468L38.041,5.481L38.041,44.184L47.952,44.184L47.952,5.481L47.952,5.468L47.952,5.458L47.952,5.449L47.952,5.439L47.951,5.429L47.951,5.42L47.951,5.41L47.95,5.4L47.95,5.391L47.949,5.381L47.949,5.372L47.948,5.362L47.947,5.353L47.946,5.343L47.945,5.334L47.945,5.325L47.944,5.315L47.942,5.306L47.941,5.297L47.94,5.288L47.939,5.279L47.938,5.269L47.936,5.26L47.935,5.251L47.934,5.242L47.932,5.233L47.931,5.224L47.929,5.215L47.927,5.206L47.926,5.197L47.924,5.188L47.922,5.179L47.92,5.17L47.918,5.161L47.916,5.152L47.914,5.143L47.912,5.134L47.91,5.126L47.908,5.117L47.906,5.108L47.904,5.099L47.901,5.09L47.899,5.082L47.896,5.073L47.894,5.064L47.891,5.056L47.889,5.047L47.886,5.039L47.883,5.03L47.881,5.022L47.878,5.013L47.875,5.004L47.872,4.996L47.869,4.988L47.866,4.979L47.863,4.971L47.86,4.962L47.857,4.954L47.854,4.946L47.85,4.937L47.847,4.929L47.844,4.921L47.84,4.913L47.837,4.904L47.833,4.896L47.83,4.888L47.826,4.88L47.823,4.872L47.819,4.863L47.815,4.855L47.811,4.847L47.807,4.839L47.804,4.831L47.8,4.823L47.796,4.815L47.792,4.807L47.787,4.799L47.783,4.791L47.779,4.784L47.775,4.776L47.771,4.768L47.766,4.76L47.762,4.752L47.758,4.745L47.753,4.737L47.749,4.729L47.744,4.722L47.739,4.714L47.735,4.706L47.73,4.699L47.725,4.691L47.72,4.684L47.716,4.676L47.711,4.669L47.706,4.661L47.701,4.654L47.696,4.646L47.691,4.639L47.686,4.632L47.681,4.625L47.675,4.617L47.67,4.61L47.665,4.603L47.659,4.595L47.654,4.588L47.649,4.581L47.643,4.574L47.638,4.567L47.632,4.56L47.627,4.553L47.621,4.546L47.615,4.539L47.609,4.532L47.604,4.526L47.598,4.519L47.592,4.512L47.586,4.505L47.58,4.498L47.574,4.492L47.568,4.485L47.562,4.479L47.556,4.472L47.55,4.465L47.544,4.459L47.538,4.453L47.532,4.446L47.525,4.44L47.519,4.433L47.513,4.427L47.506,4.421L47.5,4.414L47.493,4.408L47.487,4.402L47.48,4.396L47.474,4.39L47.467,4.384L47.46,4.378L47.454,4.372L47.447,4.366L47.44,4.36L47.433,4.354L47.427,4.349L47.42,4.343L47.413,4.337L47.406,4.331L47.399,4.326L47.392,4.32L47.385,4.315L47.378,4.309L47.371,4.304L47.364,4.298L47.357,4.293L47.349,4.287L47.342,4.282L47.335,4.277L47.328,4.272L47.32,4.267L47.313,4.261L47.306,4.256L47.298,4.251L47.291,4.246L47.284,4.241L47.276,4.237L47.269,4.232L47.261,4.227L47.253,4.222L47.246,4.217L47.238,4.213L47.231,4.208L47.223,4.204L47.215,4.199L47.208,4.195L47.2,4.19L47.192,4.186L47.184,4.182L47.176,4.177L47.169,4.173L47.161,4.169L47.153,4.165L47.145,4.161L47.137,4.157L47.129,4.153L47.121,4.149L47.113,4.145L47.105,4.141L47.097,4.137L47.089,4.133L47.081,4.13L47.073,4.126L47.064,4.122L47.056,4.119L47.048,4.115L47.04,4.112L47.031,4.108L47.023,4.105L47.015,4.102L47.007,4.099L46.998,4.095L46.99,4.092L46.981,4.089L46.973,4.086L46.965,4.083L46.956,4.08L46.948,4.077L46.939,4.074L46.931,4.072L46.922,4.069L46.914,4.066L46.905,4.063L46.896,4.061L46.888,4.058L46.879,4.056L46.87,4.053L46.862,4.051L46.853,4.049L46.844,4.046L46.836,4.044L46.827,4.042L46.818,4.04L46.809,4.038L46.8,4.036L46.791,4.034L46.782,4.032L46.774,4.03L46.765,4.028L46.756,4.026L46.747,4.025L46.738,4.023L46.729,4.022L46.719,4.02L46.71,4.019L46.701,4.017L46.692,4.016L46.683,4.014L46.674,4.013L46.665,4.012L46.655,4.011L46.646,4.01L46.637,4.009L46.627,4.008L46.618,4.007L46.609,4.006L46.599,4.005L46.59,4.004L46.58,4.004L46.571,4.003L46.561,4.002L46.552,4.002L46.542,4.002L46.533,4.001L46.523,4.001L46.513,4.001L46.504,4L46.494,4L46.484,4L46.471,4L39.522,4Z"/>
            </g>
            <g transform="matrix(1.24501,0,0,1.02692,-14.2001,-1.23921)">
                <path d="M55.961,12.782L55.986,12.782L56.012,12.783L56.038,12.784L56.064,12.786L56.077,12.787L56.102,12.789L56.128,12.792L56.153,12.794L56.178,12.798L56.203,12.801L56.228,12.806L56.253,12.81L56.278,12.815L56.303,12.82L56.328,12.825L56.352,12.831L56.377,12.838L56.401,12.844L56.425,12.851L56.449,12.859L56.473,12.866L56.497,12.874L56.521,12.883L56.545,12.891L56.568,12.901L56.592,12.91L56.615,12.92L56.638,12.93L56.661,12.94L56.684,12.951L56.707,12.962L56.729,12.973L56.752,12.985L56.774,12.997L56.796,13.01L56.818,13.022L56.84,13.035L56.862,13.049L56.884,13.062L56.905,13.076L56.926,13.09L56.947,13.105L56.968,13.12L56.989,13.135L57.01,13.15L57.03,13.166L57.051,13.182L57.071,13.198L57.091,13.215L57.11,13.232L57.13,13.249L57.149,13.266L57.169,13.284L57.188,13.302L57.207,13.32L57.225,13.338L57.244,13.357L57.262,13.376L57.28,13.395L57.298,13.415L57.316,13.435L57.334,13.455L57.351,13.475L57.368,13.496L57.385,13.517L57.402,13.538L57.418,13.559L57.435,13.58L57.451,13.602L57.467,13.624L57.482,13.646L57.498,13.669L57.513,13.691L57.528,13.714L57.543,13.737L57.557,13.761L57.572,13.784L57.586,13.808L57.6,13.832L57.614,13.856L57.627,13.881L57.64,13.905L57.653,13.93L57.666,13.955L57.678,13.98L57.691,14.006L57.702,14.031L57.714,14.057L57.726,14.083L57.737,14.109L57.748,14.136L57.759,14.162L57.769,14.189L57.779,14.216L57.789,14.243L57.799,14.27L57.808,14.297L57.817,14.325L57.826,14.353L57.835,14.381L57.843,14.409L57.851,14.437L57.859,14.465L57.866,14.494L57.874,14.523L57.881,14.551L57.887,14.58L57.894,14.609L57.9,14.639L57.905,14.668L57.911,14.698L57.916,14.727L57.921,14.757L57.925,14.787L57.93,14.817L57.934,14.847L57.937,14.877L57.941,14.908L57.944,14.938L57.946,14.969L57.949,15L57.951,15.031L57.953,15.062L57.954,15.093L57.955,15.124L57.956,15.155L57.957,15.186L57.957,15.218L57.957,46.031L49.92,46.031L49.92,12.782L55.948,12.782L55.961,12.782ZM51.526,14.729L51.526,44.084L56.35,44.084L56.35,15.221L56.35,15.215L56.35,15.211L56.35,15.208L56.35,15.204L56.35,15.201L56.35,15.198L56.35,15.195L56.35,15.191L56.35,15.188L56.35,15.188L56.349,15.179L56.349,15.172L56.348,15.166L56.348,15.16L56.347,15.154L56.346,15.148L56.346,15.142L56.345,15.136L56.344,15.13L56.343,15.124L56.342,15.118L56.341,15.112L56.34,15.107L56.339,15.101L56.338,15.095L56.337,15.089L56.335,15.084L56.334,15.078L56.333,15.073L56.331,15.067L56.33,15.062L56.328,15.056L56.326,15.051L56.325,15.045L56.323,15.04L56.321,15.035L56.319,15.029L56.318,15.024L56.316,15.019L56.314,15.013L56.312,15.008L56.309,15.003L56.307,14.998L56.305,14.992L56.303,14.987L56.3,14.982L56.298,14.977L56.296,14.972L56.293,14.967L56.291,14.962L56.288,14.957L56.285,14.952L56.283,14.947L56.28,14.942L56.277,14.937L56.274,14.932L56.271,14.927L56.268,14.923L56.265,14.918L56.262,14.913L56.259,14.909L56.256,14.904L56.253,14.899L56.249,14.895L56.246,14.89L56.243,14.886L56.239,14.881L56.236,14.877L56.232,14.873L56.229,14.869L56.225,14.864L56.221,14.86L56.218,14.856L56.214,14.852L56.21,14.848L56.207,14.844L56.203,14.84L56.199,14.837L56.195,14.833L56.191,14.829L56.187,14.826L56.183,14.822L56.179,14.819L56.175,14.815L56.171,14.812L56.167,14.808L56.163,14.805L56.159,14.802L56.155,14.799L56.15,14.796L56.146,14.793L56.142,14.79L56.138,14.787L56.134,14.784L56.129,14.782L56.125,14.779L56.121,14.777L56.116,14.774L56.112,14.772L56.108,14.769L56.103,14.767L56.099,14.765L56.094,14.763L56.09,14.761L56.085,14.758L56.081,14.757L56.076,14.755L56.072,14.753L56.067,14.751L56.063,14.749L56.058,14.748L56.053,14.746L56.049,14.745L56.044,14.743L56.039,14.742L56.035,14.741L56.03,14.739L56.025,14.738L56.02,14.737L56.015,14.736L56.01,14.735L56.005,14.734L56,14.733L55.995,14.733L55.99,14.732L55.985,14.731L55.98,14.731L55.972,14.73L55.972,14.73L55.969,14.73L55.967,14.73L55.964,14.73L55.961,14.73L55.959,14.73L55.956,14.73L55.953,14.729L55.95,14.729L55.945,14.729L51.526,14.729Z"/>
            </g>
            <path d="M36.793,5.979L36.808,5.979L36.823,5.98L36.838,5.981L36.853,5.981L36.868,5.982L36.883,5.984L36.898,5.985L36.913,5.987L36.927,5.988L36.942,5.99L36.956,5.993L36.971,5.995L36.985,5.997L37,6L37.014,6.003L37.028,6.006L37.043,6.009L37.057,6.012L37.071,6.016L37.085,6.02L37.099,6.024L37.113,6.028L37.126,6.032L37.14,6.036L37.154,6.041L37.167,6.045L37.181,6.05L37.194,6.055L37.207,6.06L37.221,6.066L37.234,6.071L37.247,6.077L37.26,6.083L37.273,6.089L37.286,6.095L37.299,6.101L37.311,6.107L37.324,6.114L37.336,6.121L37.349,6.127L37.361,6.134L37.373,6.142L37.385,6.149L37.397,6.156L37.409,6.164L37.421,6.171L37.433,6.179L37.445,6.187L37.456,6.195L37.468,6.204L37.479,6.212L37.49,6.22L37.501,6.229L37.512,6.238L37.523,6.247L37.534,6.256L37.545,6.265L37.555,6.274L37.566,6.284L37.576,6.293L37.586,6.303L37.596,6.312L37.606,6.322L37.616,6.332L37.626,6.342L37.636,6.353L37.645,6.363L37.655,6.374L37.664,6.384L37.673,6.395L37.682,6.406L37.691,6.416L37.7,6.427L37.708,6.439L37.717,6.45L37.725,6.461L37.733,6.473L37.741,6.484L37.749,6.496L37.757,6.508L37.765,6.519L37.772,6.531L37.78,6.543L37.787,6.555L37.794,6.568L37.801,6.58L37.808,6.592L37.815,6.605L37.821,6.617L37.828,6.63L37.834,6.643L37.84,6.656L37.846,6.669L37.852,6.682L37.857,6.695L37.863,6.708L37.868,6.721L37.873,6.735L37.878,6.748L37.883,6.761L37.888,6.775L37.893,6.789L37.897,6.802L37.901,6.816L37.905,6.83L37.909,6.844L37.913,6.858L37.916,6.872L37.92,6.886L37.923,6.9L37.926,6.915L37.929,6.929L37.931,6.943L37.934,6.958L37.936,6.972L37.938,6.987L37.94,7.001L37.942,7.016L37.944,7.031L37.945,7.046L37.946,7.06L37.947,7.075L37.948,7.09L37.949,7.105L37.949,7.12L37.949,7.135L37.95,7.151L37.95,45.045L37.95,45.057L37.949,45.07L37.949,45.083L37.948,45.095L37.948,45.108L37.947,45.12L37.946,45.133L37.944,45.145L37.943,45.158L37.942,45.17L37.94,45.182L37.938,45.195L37.936,45.207L37.934,45.219L37.932,45.231L37.93,45.243L37.927,45.255L37.924,45.267L37.921,45.279L37.919,45.291L37.915,45.303L37.912,45.314L37.909,45.326L37.905,45.338L37.902,45.349L37.898,45.361L37.894,45.372L37.89,45.384L37.885,45.395L37.881,45.406L37.877,45.417L37.872,45.428L37.867,45.439L37.862,45.45L37.857,45.461L37.852,45.472L37.847,45.483L37.842,45.494L37.836,45.504L37.83,45.515L37.825,45.525L37.819,45.535L37.813,45.546L37.807,45.556L37.8,45.566L37.794,45.576L37.788,45.586L37.781,45.596L37.774,45.606L37.767,45.615L37.761,45.625L37.753,45.635L37.746,45.644L37.739,45.653L37.732,45.663L37.724,45.672L37.717,45.681L37.709,45.69L37.701,45.699L37.693,45.708L37.685,45.716L37.677,45.725L37.669,45.734L37.66,45.742L37.652,45.75L37.644,45.759L37.635,45.767L37.626,45.775L37.617,45.783L37.608,45.79L37.599,45.798L37.59,45.806L37.581,45.813L37.572,45.821L37.563,45.828L37.553,45.835L37.544,45.842L37.534,45.849L37.524,45.856L37.514,45.863L37.505,45.869L37.495,45.876L37.485,45.882L37.474,45.888L37.464,45.894L37.454,45.9L37.444,45.906L37.433,45.912L37.423,45.918L37.412,45.923L37.401,45.929L37.391,45.934L37.38,45.939L37.369,45.944L37.358,45.949L37.347,45.954L37.336,45.958L37.325,45.963L37.313,45.967L37.302,45.971L37.291,45.975L37.279,45.979L37.268,45.983L37.256,45.987L37.245,45.99L37.233,45.994L37.221,45.997L37.209,46L37.198,46.003L37.186,46.006L37.174,46.009L37.162,46.011L37.15,46.013L37.138,46.016L37.125,46.018L37.113,46.02L37.101,46.022L37.089,46.023L37.076,46.025L37.064,46.026L37.051,46.027L37.039,46.028L37.026,46.029L37.014,46.03L37.001,46.03L36.988,46.031L36.976,46.031L36.963,46.031L24.718,46.031L24.708,46.031L24.699,46.031L24.69,46.031L24.68,46.03L24.671,46.03L24.662,46.029L24.652,46.028L24.643,46.027L24.634,46.026L24.625,46.025L24.616,46.024L24.607,46.023L24.597,46.021L24.588,46.02L24.579,46.018L24.57,46.016L24.562,46.014L24.553,46.012L24.544,46.01L24.535,46.008L24.526,46.006L24.518,46.003L24.509,46.001L24.5,45.998L24.492,45.995L24.483,45.993L24.475,45.99L24.466,45.987L24.458,45.984L24.45,45.98L24.441,45.977L24.433,45.974L24.425,45.97L24.417,45.966L24.409,45.963L24.401,45.959L24.393,45.955L24.385,45.951L24.377,45.947L24.369,45.943L24.361,45.938L24.354,45.934L24.346,45.93L24.339,45.925L24.331,45.92L24.324,45.916L24.316,45.911L24.309,45.906L24.302,45.901L24.294,45.896L24.287,45.891L24.28,45.886L24.273,45.88L24.266,45.875L24.259,45.869L24.252,45.864L24.246,45.858L24.239,45.853L24.232,45.847L24.226,45.841L24.219,45.835L24.213,45.829L24.207,45.823L24.2,45.817L24.194,45.81L24.188,45.804L24.182,45.798L24.176,45.791L24.17,45.785L24.165,45.778L24.159,45.771L24.153,45.765L24.148,45.758L24.142,45.751L24.137,45.744L24.131,45.737L24.126,45.73L24.121,45.723L24.116,45.716L24.111,45.708L24.106,45.701L24.101,45.694L24.097,45.686L24.092,45.679L24.087,45.671L24.083,45.663L24.079,45.656L24.074,45.648L24.07,45.64L24.066,45.632L24.062,45.624L24.058,45.616L24.054,45.608L24.051,45.6L24.047,45.592L24.044,45.584L24.04,45.576L24.037,45.567L24.034,45.559L24.03,45.551L24.027,45.542L24.024,45.534L24.022,45.525L24.019,45.517L24.016,45.508L24.014,45.499L24.011,45.491L24.009,45.482L24.007,45.473L24.005,45.464L24.003,45.456L24.001,45.447L23.999,45.438L23.997,45.429L23.996,45.42L23.994,45.411L23.993,45.401L23.992,45.392L23.991,45.383L23.99,45.374L23.989,45.365L23.988,45.355L23.987,45.346L23.987,45.337L23.987,45.327L23.986,45.318L23.986,45.309L23.986,45.299L23.986,9.47L23.986,9.447L23.986,9.425L23.987,9.402L23.987,9.38L23.988,9.358L23.989,9.335L23.989,9.313L23.991,9.29L23.992,9.268L23.993,9.246L23.995,9.224L23.996,9.202L23.998,9.179L24,9.157L24.002,9.135L24.004,9.113L24.006,9.091L24.009,9.069L24.011,9.047L24.014,9.026L24.017,9.004L24.02,8.982L24.023,8.96L24.026,8.939L24.03,8.917L24.033,8.895L24.037,8.874L24.041,8.852L24.044,8.831L24.048,8.81L24.053,8.788L24.057,8.767L24.061,8.746L24.066,8.724L24.071,8.703L24.075,8.682L24.08,8.661L24.085,8.64L24.091,8.619L24.096,8.598L24.101,8.577L24.107,8.556L24.113,8.535L24.118,8.515L24.124,8.494L24.131,8.473L24.137,8.453L24.143,8.432L24.149,8.412L24.156,8.392L24.163,8.371L24.17,8.351L24.176,8.331L24.183,8.31L24.191,8.29L24.198,8.27L24.205,8.25L24.213,8.23L24.221,8.21L24.228,8.19L24.236,8.171L24.244,8.151L24.252,8.131L24.26,8.112L24.269,8.092L24.277,8.073L24.286,8.053L24.295,8.034L24.303,8.015L24.312,7.995L24.321,7.976L24.33,7.957L24.34,7.938L24.349,7.919L24.359,7.9L24.368,7.881L24.378,7.863L24.388,7.844L24.398,7.825L24.408,7.807L24.418,7.788L24.428,7.77L24.438,7.751L24.449,7.733L24.459,7.715L24.47,7.697L24.481,7.678L24.492,7.66L24.503,7.642L24.514,7.625L24.525,7.607L24.536,7.589L24.548,7.571L24.559,7.554L24.571,7.536L24.583,7.519L24.594,7.501L24.606,7.484L24.618,7.467L24.63,7.45L24.643,7.433L24.655,7.416L24.667,7.399L24.68,7.382L24.692,7.365L24.705,7.348L24.718,7.332L24.731,7.315L24.744,7.299L24.757,7.282L24.77,7.266L24.784,7.25L24.797,7.234L24.81,7.218L24.824,7.202L24.838,7.186L24.851,7.17L24.865,7.154L24.879,7.139L24.893,7.123L24.907,7.108L24.922,7.092L24.936,7.077L24.95,7.062L24.965,7.047L24.979,7.032L24.994,7.017L25.009,7.002L25.024,6.987L25.039,6.973L25.054,6.958L25.069,6.943L25.084,6.929L25.099,6.915L25.115,6.901L25.13,6.886L25.146,6.872L25.161,6.858L25.177,6.845L25.193,6.831L25.209,6.817L25.225,6.804L25.241,6.79L25.257,6.777L25.273,6.763L25.289,6.75L25.306,6.737L25.322,6.724L25.339,6.711L25.355,6.698L25.372,6.686L25.389,6.673L25.406,6.66L25.423,6.648L25.44,6.636L25.457,6.623L25.474,6.611L25.491,6.599L25.508,6.587L25.526,6.576L25.543,6.564L25.561,6.552L25.578,6.541L25.596,6.529L25.614,6.518L25.631,6.507L25.649,6.496L25.667,6.485L25.685,6.474L25.703,6.463L25.722,6.452L25.74,6.442L25.758,6.431L25.777,6.421L25.795,6.411L25.813,6.401L25.832,6.391L25.851,6.381L25.869,6.371L25.888,6.361L25.907,6.352L25.926,6.342L25.945,6.333L25.964,6.324L25.983,6.314L26.002,6.305L26.021,6.296L26.041,6.288L26.06,6.279L26.08,6.27L26.099,6.262L26.119,6.254L26.138,6.245L26.158,6.237L26.178,6.229L26.197,6.221L26.217,6.214L26.237,6.206L26.257,6.198L26.277,6.191L26.297,6.184L26.317,6.177L26.337,6.17L26.358,6.163L26.378,6.156L26.398,6.149L26.419,6.143L26.439,6.136L26.46,6.13L26.48,6.124L26.501,6.118L26.522,6.112L26.542,6.106L26.563,6.1L26.584,6.095L26.605,6.089L26.626,6.084L26.647,6.079L26.668,6.073L26.689,6.069L26.71,6.064L26.731,6.059L26.752,6.054L26.774,6.05L26.795,6.046L26.816,6.042L26.838,6.038L26.859,6.034L26.881,6.03L26.902,6.026L26.924,6.023L26.946,6.019L26.967,6.016L26.989,6.013L27.011,6.01L27.033,6.007L27.054,6.004L27.076,6.002L27.098,5.999L27.12,5.997L27.142,5.995L27.164,5.993L27.186,5.991L27.208,5.989L27.231,5.988L27.253,5.986L27.275,5.985L27.297,5.984L27.32,5.983L27.342,5.982L27.364,5.981L27.387,5.98L27.409,5.98L27.432,5.979L27.454,5.979L27.477,5.979L36.778,5.979L36.793,5.979ZM27.48,7.979L27.467,7.979L27.457,7.979L27.447,7.979L27.438,7.98L27.428,7.98L27.418,7.98L27.408,7.981L27.399,7.981L27.389,7.982L27.379,7.982L27.37,7.983L27.36,7.983L27.351,7.984L27.341,7.985L27.332,7.986L27.323,7.987L27.313,7.988L27.304,7.989L27.294,7.99L27.285,7.991L27.276,7.992L27.266,7.994L27.257,7.995L27.248,7.996L27.239,7.998L27.23,7.999L27.22,8.001L27.211,8.002L27.202,8.004L27.193,8.006L27.184,8.008L27.175,8.009L27.166,8.011L27.157,8.013L27.148,8.015L27.139,8.017L27.13,8.019L27.121,8.021L27.113,8.024L27.104,8.026L27.095,8.028L27.086,8.031L27.077,8.033L27.069,8.035L27.06,8.038L27.051,8.04L27.042,8.043L27.034,8.046L27.025,8.048L27.016,8.051L27.008,8.054L26.999,8.057L26.991,8.06L26.982,8.063L26.974,8.066L26.965,8.069L26.957,8.072L26.948,8.075L26.94,8.078L26.932,8.082L26.923,8.085L26.915,8.088L26.906,8.092L26.898,8.095L26.89,8.099L26.882,8.103L26.873,8.106L26.865,8.11L26.857,8.114L26.849,8.117L26.841,8.121L26.833,8.125L26.825,8.129L26.816,8.133L26.808,8.137L26.8,8.141L26.792,8.145L26.784,8.149L26.777,8.154L26.769,8.158L26.761,8.162L26.753,8.167L26.745,8.171L26.737,8.175L26.729,8.18L26.722,8.185L26.714,8.189L26.706,8.194L26.699,8.198L26.691,8.203L26.683,8.208L26.676,8.213L26.668,8.218L26.661,8.223L26.653,8.228L26.645,8.233L26.638,8.238L26.631,8.243L26.623,8.248L26.616,8.253L26.609,8.258L26.601,8.264L26.594,8.269L26.587,8.274L26.58,8.28L26.572,8.285L26.565,8.291L26.558,8.296L26.551,8.302L26.544,8.308L26.537,8.313L26.53,8.319L26.523,8.325L26.516,8.331L26.509,8.337L26.502,8.342L26.496,8.348L26.489,8.354L26.482,8.36L26.475,8.366L26.469,8.372L26.462,8.379L26.456,8.385L26.449,8.391L26.442,8.397L26.436,8.404L26.43,8.41L26.423,8.416L26.417,8.423L26.41,8.429L26.404,8.436L26.398,8.442L26.392,8.449L26.385,8.455L26.379,8.462L26.373,8.469L26.367,8.475L26.361,8.482L26.355,8.489L26.349,8.496L26.343,8.502L26.338,8.509L26.332,8.516L26.326,8.523L26.32,8.53L26.315,8.537L26.309,8.544L26.303,8.551L26.298,8.558L26.292,8.565L26.287,8.573L26.281,8.58L26.276,8.587L26.271,8.594L26.265,8.602L26.26,8.609L26.255,8.616L26.25,8.624L26.245,8.631L26.24,8.639L26.235,8.646L26.23,8.654L26.225,8.661L26.22,8.669L26.215,8.676L26.21,8.684L26.205,8.692L26.201,8.699L26.196,8.707L26.191,8.715L26.187,8.722L26.182,8.73L26.178,8.738L26.174,8.746L26.169,8.754L26.165,8.762L26.16,8.77L26.156,8.778L26.152,8.786L26.148,8.793L26.144,8.801L26.14,8.81L26.136,8.818L26.132,8.826L26.128,8.834L26.124,8.842L26.12,8.85L26.117,8.858L26.113,8.866L26.109,8.875L26.106,8.883L26.102,8.891L26.099,8.9L26.095,8.908L26.092,8.916L26.089,8.925L26.085,8.933L26.082,8.941L26.079,8.95L26.076,8.958L26.073,8.967L26.07,8.975L26.067,8.984L26.064,8.992L26.061,9.001L26.058,9.01L26.055,9.018L26.053,9.027L26.05,9.036L26.047,9.044L26.045,9.053L26.042,9.062L26.04,9.07L26.037,9.079L26.035,9.088L26.033,9.097L26.031,9.106L26.028,9.115L26.026,9.123L26.024,9.132L26.022,9.141L26.02,9.15L26.018,9.159L26.016,9.168L26.014,9.177L26.013,9.186L26.011,9.195L26.009,9.204L26.008,9.214L26.006,9.223L26.005,9.232L26.003,9.241L26.002,9.25L26.001,9.259L25.999,9.269L25.998,9.278L25.997,9.287L25.996,9.297L25.995,9.306L25.994,9.316L25.993,9.325L25.992,9.334L25.991,9.344L25.99,9.353L25.99,9.363L25.989,9.373L25.988,9.382L25.988,9.392L25.987,9.402L25.987,9.411L25.987,9.421L25.986,9.431L25.986,9.44L25.986,9.45L25.986,9.46L25.986,9.473L25.986,44.031L35.95,44.031L35.95,7.979L27.48,7.979Z"/>
            <g>
                <rect x="28.044" y="11.887" width="5.967" height="2.089"/>
                <g transform="matrix(1,0,0,1,0,28.1361)">
                    <rect x="28.044" y="11.887" width="5.967" height="2.089"/>
                </g>
                <g transform="matrix(1,0,0,1,12.0541,28.1361)">
                    <rect x="28.044" y="11.887" width="5.967" height="2.089"/>
                </g>
                <g transform="matrix(1,0,0,1,21.0051,28.1361)">
                    <rect x="28.044" y="11.887" width="5.967" height="2.089"/>
                </g>
                <g transform="matrix(1,0,0,1,21.0051,5.94499)">
                    <rect x="28.044" y="11.887" width="5.967" height="2.089"/>
                </g>
                <g transform="matrix(1,0,0,1,12.0541,-3.93846)">
                    <rect x="28.044" y="11.887" width="5.967" height="2.089"/>
                </g>
            </g>
        </g>
        <g>
            <g>
                <g transform="matrix(1,0,0,1,0,-0.0372972)">
                    <path d="M61.017,44.095L61.036,44.095L61.056,44.096L61.075,44.096L61.094,44.097L61.114,44.097L61.133,44.098L61.152,44.099L61.171,44.1L61.19,44.101L61.209,44.102L61.229,44.104L61.248,44.105L61.267,44.107L61.286,44.109L61.304,44.111L61.323,44.112L61.342,44.115L61.361,44.117L61.38,44.119L61.399,44.122L61.417,44.124L61.436,44.127L61.455,44.13L61.473,44.133L61.492,44.136L61.51,44.139L61.529,44.142L61.547,44.145L61.566,44.149L61.584,44.152L61.602,44.156L61.621,44.16L61.639,44.164L61.657,44.168L61.675,44.172L61.693,44.176L61.712,44.181L61.73,44.185L61.748,44.19L61.766,44.194L61.784,44.199L61.801,44.204L61.819,44.209L61.837,44.214L61.855,44.219L61.872,44.225L61.89,44.23L61.908,44.236L61.925,44.241L61.943,44.247L61.96,44.253L61.978,44.259L61.995,44.265L62.012,44.271L62.03,44.277L62.047,44.284L62.064,44.29L62.081,44.297L62.098,44.303L62.115,44.31L62.132,44.317L62.149,44.324L62.166,44.331L62.183,44.338L62.199,44.346L62.216,44.353L62.233,44.36L62.249,44.368L62.266,44.376L62.282,44.383L62.299,44.391L62.315,44.399L62.332,44.407L62.348,44.415L62.364,44.424L62.38,44.432L62.396,44.44L62.428,44.458L62.46,44.475L62.492,44.493L62.523,44.511L62.554,44.53L62.585,44.549L62.615,44.568L62.646,44.588L62.676,44.608L62.706,44.628L62.735,44.649L62.764,44.67L62.794,44.692L62.822,44.714L62.851,44.736L62.879,44.758L62.907,44.781L62.935,44.804L62.962,44.827L62.989,44.851L63.016,44.875L63.042,44.9L63.069,44.924L63.095,44.949L63.12,44.975L63.146,45L63.171,45.026L63.195,45.053L63.22,45.079L63.244,45.106L63.267,45.133L63.291,45.16L63.314,45.188L63.337,45.216L63.359,45.244L63.381,45.273L63.403,45.301L63.425,45.33L63.446,45.36L63.467,45.389L63.487,45.419L63.507,45.449L63.527,45.48L63.546,45.51L63.565,45.541L63.584,45.572L63.602,45.603L63.62,45.635L63.637,45.667L63.655,45.699L63.663,45.715L63.671,45.731L63.68,45.747L63.688,45.763L63.696,45.78L63.704,45.796L63.712,45.813L63.719,45.829L63.727,45.846L63.735,45.862L63.742,45.879L63.749,45.896L63.757,45.912L63.764,45.929L63.771,45.946L63.778,45.963L63.785,45.98L63.792,45.997L63.798,46.014L63.805,46.031L63.811,46.048L63.818,46.065L63.824,46.083L63.83,46.1L63.836,46.117L63.842,46.135L63.848,46.152L63.854,46.17L63.859,46.187L63.865,46.205L63.87,46.223L63.876,46.24L63.881,46.258L63.886,46.276L63.891,46.294L63.896,46.311L63.901,46.329L63.905,46.347L63.91,46.365L63.914,46.383L63.919,46.401L63.923,46.42L63.927,46.438L63.931,46.456L63.935,46.474L63.939,46.493L63.943,46.511L63.946,46.529L63.95,46.548L63.953,46.566L63.956,46.585L63.959,46.603L63.962,46.622L63.965,46.64L63.968,46.659L63.971,46.678L63.973,46.696L63.976,46.715L63.978,46.734L63.98,46.753L63.983,46.772L63.984,46.791L63.986,46.809L63.988,46.828L63.99,46.847L63.991,46.866L63.993,46.886L63.994,46.905L63.995,46.924L63.996,46.943L63.997,46.962L63.998,46.981L63.998,47.001L63.999,47.02L63.999,47.039L64,47.059L64,47.078L64,47.097L64,53.102L64,53.121L64,53.141L63.999,53.16L63.999,53.179L63.998,53.199L63.998,53.218L63.997,53.237L63.996,53.256L63.995,53.276L63.994,53.295L63.993,53.314L63.991,53.333L63.99,53.352L63.988,53.371L63.986,53.39L63.984,53.409L63.983,53.428L63.98,53.447L63.978,53.465L63.976,53.484L63.973,53.503L63.971,53.522L63.968,53.54L63.965,53.559L63.962,53.578L63.959,53.596L63.956,53.615L63.953,53.633L63.95,53.652L63.946,53.67L63.943,53.688L63.939,53.707L63.935,53.725L63.931,53.743L63.927,53.762L63.923,53.78L63.919,53.798L63.914,53.816L63.91,53.834L63.905,53.852L63.901,53.87L63.896,53.888L63.891,53.906L63.886,53.924L63.881,53.941L63.876,53.959L63.87,53.977L63.865,53.994L63.859,54.012L63.854,54.03L63.848,54.047L63.842,54.064L63.836,54.082L63.83,54.099L63.824,54.117L63.818,54.134L63.811,54.151L63.805,54.168L63.798,54.185L63.792,54.202L63.785,54.219L63.778,54.236L63.771,54.253L63.764,54.27L63.757,54.287L63.749,54.304L63.742,54.32L63.735,54.337L63.727,54.354L63.719,54.37L63.712,54.387L63.704,54.403L63.696,54.42L63.688,54.436L63.68,54.452L63.671,54.468L63.663,54.484L63.655,54.501L63.646,54.517L63.637,54.533L63.629,54.549L63.62,54.564L63.611,54.58L63.602,54.596L63.593,54.612L63.584,54.627L63.574,54.643L63.565,54.658L63.556,54.674L63.546,54.689L63.536,54.704L63.527,54.72L63.517,54.735L63.507,54.75L63.497,54.765L63.487,54.78L63.477,54.795L63.467,54.81L63.456,54.825L63.446,54.84L63.435,54.854L63.425,54.869L63.414,54.883L63.403,54.898L63.392,54.912L63.381,54.927L63.37,54.941L63.359,54.955L63.348,54.969L63.337,54.983L63.325,54.997L63.314,55.011L63.303,55.025L63.291,55.039L63.279,55.053L63.267,55.066L63.256,55.08L63.244,55.093L63.232,55.107L63.22,55.12L63.208,55.134L63.195,55.147L63.183,55.16L63.171,55.173L63.158,55.186L63.146,55.199L63.133,55.212L63.12,55.225L63.107,55.237L63.095,55.25L63.082,55.262L63.069,55.275L63.056,55.287L63.042,55.3L63.029,55.312L63.016,55.324L63.003,55.336L62.989,55.348L62.976,55.36L62.962,55.372L62.948,55.384L62.935,55.395L62.921,55.407L62.907,55.418L62.893,55.43L62.879,55.441L62.865,55.452L62.851,55.464L62.837,55.475L62.822,55.486L62.808,55.497L62.794,55.508L62.779,55.518L62.764,55.529L62.75,55.54L62.735,55.55L62.72,55.561L62.706,55.571L62.691,55.581L62.676,55.591L62.661,55.601L62.646,55.611L62.631,55.621L62.615,55.631L62.6,55.641L62.585,55.65L62.569,55.66L62.554,55.669L62.538,55.679L62.523,55.688L62.507,55.697L62.492,55.706L62.476,55.715L62.46,55.724L62.444,55.733L62.428,55.742L62.412,55.75L62.396,55.759L62.38,55.767L62.364,55.776L62.348,55.784L62.332,55.792L62.315,55.8L62.299,55.808L62.282,55.816L62.266,55.824L62.249,55.831L62.233,55.839L62.216,55.846L62.199,55.854L62.183,55.861L62.166,55.868L62.149,55.875L62.132,55.882L62.115,55.889L62.098,55.896L62.081,55.903L62.064,55.909L62.047,55.916L62.03,55.922L62.012,55.928L61.995,55.934L61.978,55.94L61.96,55.946L61.943,55.952L61.925,55.958L61.908,55.964L61.89,55.969L61.872,55.975L61.855,55.98L61.837,55.985L61.819,55.99L61.801,55.995L61.784,56L61.766,56.005L61.748,56.01L61.73,56.014L61.712,56.019L61.693,56.023L61.675,56.027L61.657,56.032L61.639,56.036L61.621,56.039L61.602,56.043L61.584,56.047L61.566,56.051L61.547,56.054L61.529,56.057L61.51,56.061L61.492,56.064L61.473,56.067L61.455,56.07L61.436,56.072L61.417,56.075L61.399,56.078L61.38,56.08L61.361,56.083L61.342,56.085L61.323,56.087L61.304,56.089L61.286,56.091L61.267,56.092L61.248,56.094L61.229,56.096L61.209,56.097L61.19,56.098L61.171,56.099L61.152,56.1L61.133,56.101L61.114,56.102L61.094,56.103L61.075,56.103L61.056,56.104L61.036,56.104L61.017,56.104L60.998,56.104L3.002,56.104L2.983,56.104L2.964,56.104L2.944,56.104L2.925,56.103L2.906,56.103L2.886,56.102L2.867,56.101L2.848,56.1L2.829,56.099L2.81,56.098L2.791,56.097L2.771,56.096L2.752,56.094L2.733,56.092L2.714,56.091L2.696,56.089L2.677,56.087L2.658,56.085L2.639,56.083L2.62,56.08L2.601,56.078L2.583,56.075L2.564,56.072L2.545,56.07L2.527,56.067L2.508,56.064L2.49,56.061L2.471,56.057L2.453,56.054L2.434,56.051L2.416,56.047L2.398,56.043L2.379,56.039L2.361,56.036L2.343,56.032L2.325,56.027L2.307,56.023L2.288,56.019L2.27,56.014L2.252,56.01L2.234,56.005L2.216,56L2.199,55.995L2.181,55.99L2.163,55.985L2.145,55.98L2.128,55.975L2.11,55.969L2.092,55.964L2.075,55.958L2.057,55.952L2.04,55.946L2.022,55.94L2.005,55.934L1.988,55.928L1.97,55.922L1.953,55.916L1.936,55.909L1.919,55.903L1.902,55.896L1.885,55.889L1.868,55.882L1.851,55.875L1.834,55.868L1.817,55.861L1.801,55.854L1.784,55.846L1.767,55.839L1.751,55.831L1.734,55.824L1.718,55.816L1.701,55.808L1.685,55.8L1.668,55.792L1.652,55.784L1.636,55.776L1.62,55.767L1.604,55.759L1.588,55.75L1.572,55.742L1.556,55.733L1.54,55.724L1.524,55.715L1.508,55.706L1.493,55.697L1.477,55.688L1.462,55.679L1.446,55.669L1.431,55.66L1.415,55.65L1.4,55.641L1.385,55.631L1.369,55.621L1.354,55.611L1.339,55.601L1.324,55.591L1.309,55.581L1.294,55.571L1.28,55.561L1.265,55.55L1.25,55.54L1.236,55.529L1.221,55.518L1.206,55.508L1.192,55.497L1.178,55.486L1.163,55.475L1.149,55.464L1.135,55.452L1.121,55.441L1.107,55.43L1.093,55.418L1.079,55.407L1.065,55.395L1.052,55.384L1.038,55.372L1.024,55.36L1.011,55.348L0.997,55.336L0.984,55.324L0.971,55.312L0.958,55.3L0.944,55.287L0.931,55.275L0.918,55.262L0.905,55.25L0.893,55.237L0.88,55.225L0.867,55.212L0.854,55.199L0.842,55.186L0.829,55.173L0.817,55.16L0.805,55.147L0.792,55.134L0.78,55.12L0.768,55.107L0.756,55.093L0.744,55.08L0.733,55.066L0.721,55.053L0.709,55.039L0.697,55.025L0.686,55.011L0.675,54.997L0.663,54.983L0.652,54.969L0.641,54.955L0.63,54.941L0.619,54.927L0.608,54.912L0.597,54.898L0.586,54.883L0.575,54.869L0.565,54.854L0.554,54.84L0.544,54.825L0.533,54.81L0.523,54.795L0.513,54.78L0.503,54.765L0.493,54.75L0.483,54.735L0.473,54.72L0.464,54.704L0.454,54.689L0.444,54.674L0.435,54.658L0.426,54.643L0.416,54.627L0.407,54.612L0.398,54.596L0.389,54.58L0.38,54.564L0.371,54.549L0.363,54.533L0.354,54.517L0.345,54.501L0.337,54.484L0.329,54.468L0.32,54.452L0.312,54.436L0.304,54.42L0.296,54.403L0.288,54.387L0.281,54.37L0.273,54.354L0.265,54.337L0.258,54.32L0.251,54.304L0.243,54.287L0.236,54.27L0.229,54.253L0.222,54.236L0.215,54.219L0.208,54.202L0.202,54.185L0.195,54.168L0.189,54.151L0.182,54.134L0.176,54.117L0.17,54.099L0.164,54.082L0.158,54.064L0.152,54.047L0.146,54.03L0.141,54.012L0.135,53.994L0.13,53.977L0.124,53.959L0.119,53.941L0.114,53.924L0.109,53.906L0.104,53.888L0.099,53.87L0.095,53.852L0.09,53.834L0.086,53.816L0.081,53.798L0.077,53.78L0.073,53.762L0.069,53.743L0.065,53.725L0.061,53.707L0.057,53.688L0.054,53.67L0.05,53.652L0.047,53.633L0.044,53.615L0.041,53.596L0.038,53.578L0.035,53.559L0.032,53.54L0.029,53.522L0.027,53.503L0.024,53.484L0.022,53.465L0.02,53.447L0.017,53.428L0.016,53.409L0.014,53.39L0.012,53.371L0.01,53.352L0.009,53.333L0.007,53.314L0.006,53.295L0.005,53.276L0.004,53.256L0.003,53.237L0.002,53.218L0.002,53.199L0.001,53.179L0.001,53.16L0,53.141L0,53.121L0,53.102L0,47.097L0,47.078L0,47.059L0.001,47.039L0.001,47.02L0.002,47.001L0.002,46.981L0.003,46.962L0.004,46.943L0.005,46.924L0.006,46.905L0.007,46.886L0.009,46.866L0.01,46.847L0.012,46.828L0.014,46.809L0.016,46.791L0.017,46.772L0.02,46.753L0.022,46.734L0.024,46.715L0.027,46.696L0.029,46.678L0.032,46.659L0.035,46.64L0.038,46.622L0.041,46.603L0.044,46.585L0.047,46.566L0.05,46.548L0.054,46.529L0.057,46.511L0.061,46.493L0.065,46.474L0.069,46.456L0.073,46.438L0.077,46.42L0.081,46.401L0.086,46.383L0.09,46.365L0.095,46.347L0.099,46.329L0.104,46.311L0.109,46.294L0.114,46.276L0.119,46.258L0.124,46.24L0.13,46.223L0.135,46.205L0.141,46.187L0.146,46.17L0.152,46.152L0.158,46.135L0.164,46.117L0.17,46.1L0.176,46.083L0.182,46.065L0.189,46.048L0.195,46.031L0.202,46.014L0.208,45.997L0.215,45.98L0.222,45.963L0.229,45.946L0.236,45.929L0.243,45.912L0.251,45.896L0.258,45.879L0.265,45.862L0.273,45.846L0.281,45.829L0.288,45.813L0.296,45.796L0.304,45.78L0.312,45.763L0.32,45.747L0.329,45.731L0.337,45.715L0.345,45.699L0.354,45.683L0.363,45.667L0.371,45.651L0.38,45.635L0.389,45.619L0.398,45.603L0.407,45.588L0.416,45.572L0.426,45.557L0.435,45.541L0.444,45.526L0.454,45.51L0.464,45.495L0.473,45.48L0.483,45.464L0.493,45.449L0.503,45.434L0.513,45.419L0.523,45.404L0.533,45.389L0.544,45.375L0.554,45.36L0.565,45.345L0.575,45.33L0.586,45.316L0.597,45.301L0.608,45.287L0.619,45.273L0.63,45.258L0.641,45.244L0.652,45.23L0.663,45.216L0.675,45.202L0.686,45.188L0.697,45.174L0.709,45.16L0.721,45.147L0.733,45.133L0.744,45.119L0.756,45.106L0.768,45.092L0.78,45.079L0.792,45.066L0.805,45.053L0.817,45.039L0.829,45.026L0.842,45.013L0.854,45L0.867,44.988L0.88,44.975L0.893,44.962L0.905,44.949L0.918,44.937L0.931,44.924L0.944,44.912L0.958,44.9L0.971,44.887L0.984,44.875L0.997,44.863L1.011,44.851L1.024,44.839L1.038,44.827L1.052,44.816L1.065,44.804L1.079,44.792L1.093,44.781L1.107,44.769L1.121,44.758L1.135,44.747L1.149,44.736L1.163,44.725L1.178,44.714L1.192,44.703L1.206,44.692L1.221,44.681L1.236,44.67L1.25,44.66L1.265,44.649L1.28,44.639L1.294,44.628L1.309,44.618L1.324,44.608L1.339,44.598L1.354,44.588L1.369,44.578L1.385,44.568L1.4,44.559L1.415,44.549L1.431,44.539L1.446,44.53L1.462,44.521L1.477,44.511L1.493,44.502L1.508,44.493L1.524,44.484L1.54,44.475L1.556,44.466L1.572,44.458L1.588,44.449L1.604,44.44L1.62,44.432L1.636,44.424L1.652,44.415L1.668,44.407L1.685,44.399L1.701,44.391L1.718,44.383L1.734,44.376L1.751,44.368L1.767,44.36L1.784,44.353L1.801,44.346L1.817,44.338L1.834,44.331L1.851,44.324L1.868,44.317L1.885,44.31L1.902,44.303L1.919,44.297L1.936,44.29L1.953,44.284L1.97,44.277L1.988,44.271L2.005,44.265L2.022,44.259L2.04,44.253L2.057,44.247L2.075,44.241L2.092,44.236L2.11,44.23L2.128,44.225L2.145,44.219L2.163,44.214L2.181,44.209L2.199,44.204L2.216,44.199L2.234,44.194L2.252,44.19L2.27,44.185L2.288,44.181L2.307,44.176L2.325,44.172L2.343,44.168L2.361,44.164L2.379,44.16L2.398,44.156L2.416,44.152L2.434,44.149L2.453,44.145L2.471,44.142L2.49,44.139L2.508,44.136L2.527,44.133L2.545,44.13L2.564,44.127L2.583,44.124L2.601,44.122L2.62,44.119L2.639,44.117L2.658,44.115L2.677,44.112L2.696,44.111L2.714,44.109L2.733,44.107L2.752,44.105L2.771,44.104L2.791,44.102L2.81,44.101L2.829,44.1L2.848,44.099L2.867,44.098L2.886,44.097L2.906,44.097L2.925,44.096L2.944,44.096L2.964,44.095L2.983,44.095L3.002,44.095L60.998,44.095L61.017,44.095ZM3.006,46.095L2.995,46.095L2.989,46.095L2.982,46.095L2.976,46.095L2.969,46.096L2.962,46.096L2.956,46.096L2.949,46.096L2.943,46.097L2.936,46.097L2.93,46.098L2.924,46.098L2.917,46.098L2.911,46.099L2.904,46.1L2.898,46.1L2.891,46.101L2.885,46.102L2.879,46.102L2.873,46.103L2.866,46.104L2.86,46.105L2.854,46.106L2.848,46.107L2.842,46.108L2.836,46.109L2.829,46.11L2.823,46.111L2.817,46.112L2.811,46.113L2.805,46.114L2.799,46.115L2.793,46.117L2.787,46.118L2.781,46.119L2.775,46.121L2.769,46.122L2.763,46.123L2.757,46.125L2.751,46.126L2.745,46.128L2.739,46.129L2.734,46.131L2.728,46.133L2.722,46.134L2.716,46.136L2.71,46.138L2.704,46.14L2.699,46.142L2.693,46.143L2.687,46.145L2.681,46.147L2.676,46.149L2.67,46.151L2.664,46.153L2.659,46.155L2.653,46.157L2.647,46.159L2.642,46.162L2.636,46.164L2.63,46.166L2.625,46.168L2.619,46.171L2.614,46.173L2.608,46.175L2.603,46.178L2.597,46.18L2.592,46.183L2.586,46.185L2.581,46.188L2.575,46.19L2.57,46.193L2.564,46.195L2.559,46.198L2.554,46.201L2.548,46.204L2.543,46.206L2.538,46.209L2.532,46.212L2.527,46.215L2.522,46.218L2.516,46.221L2.511,46.224L2.506,46.227L2.501,46.23L2.495,46.233L2.49,46.236L2.485,46.239L2.48,46.242L2.475,46.245L2.469,46.249L2.464,46.252L2.459,46.255L2.454,46.258L2.449,46.262L2.444,46.265L2.439,46.269L2.434,46.272L2.429,46.275L2.424,46.279L2.419,46.283L2.414,46.286L2.409,46.29L2.404,46.293L2.4,46.297L2.395,46.301L2.39,46.304L2.385,46.308L2.38,46.312L2.376,46.316L2.371,46.32L2.366,46.323L2.361,46.327L2.357,46.331L2.352,46.335L2.348,46.339L2.343,46.343L2.338,46.347L2.334,46.351L2.329,46.355L2.325,46.359L2.32,46.364L2.316,46.368L2.311,46.372L2.307,46.376L2.303,46.38L2.298,46.385L2.294,46.389L2.29,46.393L2.285,46.398L2.281,46.402L2.277,46.406L2.273,46.411L2.269,46.415L2.264,46.42L2.26,46.424L2.256,46.429L2.252,46.433L2.248,46.438L2.244,46.443L2.24,46.447L2.236,46.452L2.232,46.456L2.228,46.461L2.225,46.466L2.221,46.471L2.217,46.475L2.213,46.48L2.209,46.485L2.206,46.49L2.202,46.495L2.198,46.499L2.195,46.504L2.191,46.509L2.187,46.514L2.184,46.519L2.181,46.524L2.177,46.529L2.174,46.534L2.17,46.539L2.167,46.544L2.163,46.549L2.16,46.554L2.157,46.559L2.153,46.564L2.15,46.57L2.147,46.575L2.144,46.58L2.141,46.585L2.138,46.59L2.135,46.595L2.132,46.601L2.129,46.606L2.126,46.611L2.123,46.617L2.12,46.622L2.117,46.627L2.114,46.633L2.111,46.638L2.109,46.643L2.106,46.649L2.103,46.654L2.1,46.659L2.098,46.665L2.095,46.67L2.093,46.676L2.09,46.681L2.088,46.687L2.085,46.692L2.083,46.698L2.08,46.703L2.078,46.709L2.076,46.714L2.073,46.72L2.071,46.725L2.069,46.731L2.067,46.737L2.064,46.742L2.062,46.748L2.06,46.754L2.058,46.759L2.056,46.765L2.054,46.771L2.052,46.776L2.05,46.782L2.048,46.788L2.047,46.794L2.045,46.799L2.043,46.805L2.041,46.811L2.039,46.817L2.038,46.823L2.036,46.828L2.035,46.834L2.033,46.84L2.031,46.846L2.03,46.852L2.028,46.858L2.027,46.864L2.026,46.87L2.024,46.876L2.023,46.882L2.022,46.888L2.02,46.894L2.019,46.9L2.018,46.906L2.017,46.912L2.016,46.918L2.015,46.924L2.014,46.93L2.013,46.937L2.012,46.943L2.011,46.949L2.01,46.955L2.009,46.961L2.008,46.968L2.007,46.974L2.007,46.98L2.006,46.987L2.005,46.993L2.005,46.999L2.004,47.006L2.004,47.012L2.003,47.018L2.003,47.025L2.002,47.031L2.002,47.038L2.001,47.044L2.001,47.051L2.001,47.057L2.001,47.064L2,47.071L2,47.077L2,47.084L2,47.091L2,47.1L2,53.099L2,53.122L2.001,53.148L2.003,53.174L2.005,53.2L2.007,53.225L2.011,53.25L2.015,53.275L2.019,53.299L2.024,53.323L2.03,53.347L2.036,53.371L2.043,53.394L2.05,53.417L2.058,53.44L2.067,53.463L2.076,53.485L2.085,53.507L2.095,53.529L2.106,53.551L2.117,53.572L2.129,53.593L2.141,53.614L2.154,53.635L2.167,53.655L2.18,53.675L2.195,53.695L2.209,53.714L2.225,53.733L2.24,53.752L2.256,53.77L2.273,53.788L2.29,53.806L2.307,53.823L2.325,53.84L2.343,53.856L2.362,53.872L2.38,53.887L2.4,53.902L2.419,53.917L2.439,53.931L2.459,53.944L2.48,53.957L2.501,53.97L2.522,53.982L2.543,53.993L2.564,54.004L2.586,54.014L2.608,54.024L2.63,54.033L2.653,54.042L2.676,54.05L2.699,54.058L2.722,54.065L2.745,54.071L2.769,54.077L2.793,54.083L2.817,54.088L2.842,54.092L2.866,54.095L2.892,54.098L2.917,54.101L2.943,54.103L2.969,54.104L2.996,54.104L3.006,54.104L60.994,54.104L61.004,54.104L61.011,54.104L61.018,54.104L61.024,54.104L61.031,54.104L61.037,54.104L61.044,54.103L61.051,54.103L61.057,54.103L61.064,54.102L61.07,54.102L61.077,54.101L61.083,54.101L61.089,54.1L61.096,54.1L61.102,54.099L61.108,54.098L61.115,54.098L61.121,54.097L61.128,54.096L61.134,54.095L61.14,54.095L61.146,54.094L61.152,54.093L61.158,54.092L61.164,54.091L61.171,54.09L61.177,54.089L61.183,54.088L61.189,54.086L61.195,54.085L61.201,54.084L61.207,54.083L61.213,54.081L61.219,54.08L61.225,54.079L61.231,54.077L61.237,54.076L61.243,54.074L61.249,54.073L61.255,54.071L61.261,54.07L61.266,54.068L61.272,54.067L61.278,54.065L61.284,54.063L61.29,54.061L61.295,54.06L61.301,54.058L61.307,54.056L61.313,54.054L61.319,54.052L61.324,54.05L61.33,54.048L61.336,54.046L61.341,54.044L61.347,54.042L61.353,54.04L61.358,54.038L61.364,54.036L61.37,54.033L61.375,54.031L61.381,54.029L61.386,54.026L61.392,54.024L61.397,54.022L61.403,54.019L61.408,54.017L61.414,54.014L61.419,54.012L61.425,54.009L61.43,54.006L61.436,54.004L61.441,54.001L61.446,53.998L61.452,53.996L61.457,53.993L61.463,53.99L61.468,53.987L61.473,53.984L61.478,53.982L61.484,53.979L61.489,53.976L61.494,53.973L61.499,53.97L61.505,53.967L61.51,53.963L61.515,53.96L61.52,53.957L61.525,53.954L61.531,53.951L61.536,53.948L61.541,53.944L61.546,53.941L61.551,53.938L61.556,53.934L61.561,53.931L61.566,53.927L61.571,53.924L61.576,53.92L61.581,53.917L61.586,53.913L61.591,53.91L61.595,53.906L61.6,53.902L61.605,53.899L61.61,53.895L61.615,53.891L61.62,53.887L61.624,53.884L61.629,53.88L61.634,53.876L61.638,53.872L61.643,53.868L61.648,53.864L61.652,53.86L61.657,53.856L61.662,53.852L61.666,53.848L61.671,53.844L61.675,53.84L61.68,53.836L61.684,53.831L61.688,53.827L61.693,53.823L61.697,53.819L61.702,53.815L61.706,53.81L61.71,53.806L61.715,53.802L61.719,53.797L61.723,53.793L61.727,53.789L61.731,53.784L61.736,53.779L61.74,53.775L61.744,53.77L61.748,53.766L61.752,53.761L61.756,53.757L61.76,53.752L61.764,53.747L61.768,53.743L61.772,53.738L61.775,53.733L61.779,53.729L61.783,53.724L61.787,53.719L61.791,53.714L61.794,53.71L61.798,53.705L61.802,53.7L61.805,53.695L61.809,53.69L61.813,53.685L61.816,53.68L61.82,53.675L61.823,53.67L61.826,53.665L61.83,53.66L61.833,53.655L61.837,53.65L61.84,53.645L61.843,53.64L61.846,53.635L61.85,53.63L61.853,53.625L61.856,53.619L61.859,53.614L61.862,53.609L61.865,53.604L61.868,53.599L61.871,53.593L61.874,53.588L61.877,53.583L61.88,53.578L61.883,53.572L61.886,53.567L61.889,53.562L61.891,53.556L61.894,53.551L61.897,53.545L61.9,53.54L61.902,53.535L61.905,53.529L61.907,53.524L61.91,53.518L61.912,53.513L61.915,53.507L61.917,53.502L61.92,53.496L61.922,53.491L61.924,53.485L61.927,53.479L61.929,53.474L61.931,53.468L61.933,53.463L61.936,53.457L61.938,53.451L61.94,53.446L61.942,53.44L61.944,53.434L61.946,53.429L61.948,53.423L61.95,53.417L61.952,53.411L61.954,53.406L61.955,53.4L61.957,53.394L61.959,53.388L61.961,53.382L61.962,53.377L61.964,53.371L61.965,53.365L61.967,53.359L61.969,53.353L61.97,53.347L61.972,53.341L61.973,53.335L61.974,53.329L61.976,53.323L61.977,53.317L61.978,53.311L61.98,53.305L61.981,53.299L61.982,53.293L61.983,53.287L61.984,53.281L61.985,53.275L61.986,53.269L61.987,53.263L61.988,53.256L61.989,53.25L61.99,53.244L61.991,53.238L61.992,53.232L61.993,53.225L61.993,53.219L61.994,53.213L61.995,53.206L61.995,53.2L61.996,53.194L61.996,53.187L61.997,53.181L61.997,53.174L61.998,53.168L61.998,53.161L61.999,53.155L61.999,53.148L61.999,53.142L61.999,53.135L62,53.129L62,53.122L62,53.115L62,53.109L62,53.099L62,47.101L62,47.091L62,47.084L62,47.077L62,47.07L61.999,47.064L61.999,47.058L61.999,47.051L61.999,47.044L61.998,47.038L61.998,47.031L61.997,47.025L61.997,47.019L61.996,47.012L61.996,47.005L61.995,46.999L61.995,46.993L61.994,46.986L61.993,46.98L61.993,46.974L61.992,46.968L61.991,46.961L61.99,46.955L61.989,46.949L61.988,46.943L61.987,46.937L61.986,46.93L61.985,46.924L61.984,46.918L61.983,46.912L61.982,46.906L61.981,46.9L61.98,46.894L61.978,46.888L61.977,46.882L61.976,46.876L61.974,46.87L61.973,46.864L61.972,46.858L61.97,46.852L61.969,46.846L61.967,46.84L61.965,46.834L61.964,46.829L61.962,46.823L61.961,46.817L61.959,46.811L61.957,46.805L61.955,46.799L61.953,46.794L61.952,46.788L61.95,46.782L61.948,46.776L61.946,46.771L61.944,46.765L61.942,46.759L61.94,46.754L61.938,46.748L61.936,46.742L61.933,46.737L61.931,46.731L61.929,46.725L61.927,46.72L61.924,46.714L61.922,46.709L61.92,46.703L61.917,46.698L61.915,46.692L61.912,46.687L61.91,46.681L61.907,46.676L61.905,46.67L61.902,46.665L61.9,46.659L61.897,46.654L61.894,46.649L61.891,46.643L61.889,46.638L61.886,46.633L61.883,46.627L61.88,46.622L61.877,46.617L61.874,46.611L61.871,46.606L61.868,46.601L61.865,46.595L61.862,46.59L61.859,46.585L61.856,46.58L61.853,46.575L61.85,46.569L61.847,46.565L61.843,46.559L61.84,46.554L61.837,46.549L61.833,46.544L61.83,46.539L61.826,46.534L61.823,46.529L61.819,46.524L61.816,46.519L61.813,46.514L61.809,46.509L61.805,46.504L61.802,46.499L61.798,46.495L61.794,46.49L61.791,46.485L61.787,46.48L61.783,46.475L61.779,46.471L61.775,46.466L61.772,46.461L61.768,46.456L61.764,46.452L61.76,46.447L61.756,46.443L61.752,46.438L61.748,46.433L61.744,46.429L61.74,46.424L61.736,46.42L61.732,46.415L61.727,46.411L61.723,46.406L61.719,46.402L61.715,46.398L61.71,46.393L61.706,46.389L61.702,46.385L61.697,46.38L61.693,46.376L61.688,46.372L61.684,46.368L61.68,46.364L61.675,46.359L61.671,46.355L61.666,46.351L61.662,46.347L61.657,46.343L61.652,46.339L61.648,46.335L61.643,46.331L61.639,46.327L61.634,46.323L61.629,46.32L61.624,46.316L61.62,46.312L61.615,46.308L61.61,46.304L61.605,46.301L61.6,46.297L61.596,46.293L61.591,46.29L61.586,46.286L61.581,46.282L61.576,46.279L61.571,46.275L61.566,46.272L61.561,46.269L61.556,46.265L61.551,46.262L61.546,46.258L61.541,46.255L61.536,46.252L61.531,46.249L61.525,46.245L61.52,46.242L61.515,46.239L61.51,46.236L61.505,46.233L61.499,46.23L61.494,46.227L61.489,46.224L61.484,46.221L61.479,46.218L61.473,46.215L61.468,46.212L61.462,46.209L61.457,46.206L61.452,46.204L61.446,46.201L61.441,46.198L61.436,46.195L61.43,46.193L61.425,46.19L61.419,46.188L61.414,46.185L61.408,46.183L61.403,46.18L61.397,46.178L61.392,46.175L61.386,46.173L61.381,46.171L61.375,46.168L61.37,46.166L61.364,46.164L61.358,46.161L61.353,46.159L61.347,46.157L61.341,46.155L61.336,46.153L61.33,46.151L61.324,46.149L61.319,46.147L61.313,46.145L61.307,46.143L61.301,46.141L61.296,46.14L61.29,46.138L61.284,46.136L61.278,46.134L61.272,46.133L61.266,46.131L61.261,46.129L61.255,46.128L61.249,46.126L61.243,46.125L61.237,46.123L61.231,46.122L61.225,46.121L61.219,46.119L61.213,46.118L61.207,46.117L61.201,46.115L61.195,46.114L61.189,46.113L61.183,46.112L61.177,46.111L61.171,46.11L61.164,46.109L61.158,46.108L61.152,46.107L61.146,46.106L61.14,46.105L61.134,46.104L61.127,46.103L61.121,46.102L61.115,46.102L61.109,46.101L61.102,46.1L61.096,46.1L61.089,46.099L61.083,46.098L61.076,46.098L61.07,46.098L61.064,46.097L61.057,46.097L61.051,46.096L61.044,46.096L61.038,46.096L61.031,46.096L61.024,46.095L61.018,46.095L61.011,46.095L61.005,46.095L60.994,46.095L3.006,46.095Z"/>
                </g>
                <g>
                    <g>
                        <g transform="matrix(0.975,0,0,0.993056,0.148575,0.333925)">
                            <rect x="5.943" y="48.086" width="2.051" height="4.028"/>
                        </g>
                        <g transform="matrix(0.975,0,0,0.993056,5.18354,0.333925)">
                            <rect x="5.943" y="48.086" width="2.051" height="4.028"/>
                        </g>
                        <g transform="matrix(0.975,0,0,0.993056,10.2185,0.333925)">
                            <rect x="5.943" y="48.086" width="2.051" height="4.028"/>
                        </g>
                        <g transform="matrix(0.975,0,0,0.993056,15.2535,0.333925)">
                            <rect x="5.943" y="48.086" width="2.051" height="4.028"/>
                        </g>
                        <g transform="matrix(0.975,0,0,0.993056,20.2884,0.333925)">
                            <rect x="5.943" y="48.086" width="2.051" height="4.028"/>
                        </g>
                        <g transform="matrix(0.975,0,0,0.993056,25.2057,0.333925)">
                            <rect x="5.943" y="48.086" width="2.051" height="4.028"/>
                        </g>
                        <g transform="matrix(0.975,0,0,0.993056,30.1719,0.333925)">
                            <rect x="5.943" y="48.086" width="2.051" height="4.028"/>
                        </g>
                        <g transform="matrix(0.975,0,0,0.993056,35.1696,0.333925)">
                            <rect x="5.943" y="48.086" width="2.051" height="4.028"/>
                        </g>
                        <g transform="matrix(0.975,0,0,0.993056,40.1299,0.333925)">
                            <rect x="5.943" y="48.086" width="2.051" height="4.028"/>
                        </g>
                        <g transform="matrix(0.975,0,0,0.993056,45.1276,0.333925)">
                            <rect x="5.943" y="48.086" width="2.051" height="4.028"/>
                        </g>
                        <g transform="matrix(0.975,0,0,0.993056,50.1626,0.333925)">
                            <rect x="5.943" y="48.086" width="2.051" height="4.028"/>
                        </g>
                    </g>
                </g>
            </g>
            <g>
                <path d="M55.418,54.144L55.435,54.144L55.451,54.145L55.468,54.146L55.484,54.148L55.501,54.15L55.517,54.152L55.533,54.155L55.549,54.158L55.557,54.16L55.572,54.164L55.588,54.168L55.603,54.173L55.618,54.178L55.633,54.183L55.648,54.189L55.663,54.195L55.678,54.201L55.692,54.208L55.706,54.215L55.72,54.222L55.734,54.23L55.747,54.238L55.761,54.246L55.774,54.255L55.787,54.264L55.799,54.273L55.812,54.283L55.824,54.292L55.836,54.303L55.848,54.313L55.859,54.324L55.87,54.335L55.881,54.346L55.892,54.357L55.902,54.369L55.912,54.381L55.922,54.393L55.932,54.405L55.941,54.418L55.95,54.431L55.959,54.444L55.967,54.457L55.975,54.471L55.983,54.485L55.99,54.499L55.997,54.513L56.004,54.527L56.01,54.542L56.016,54.556L56.022,54.571L56.027,54.586L56.032,54.602L56.037,54.617L56.041,54.633L56.045,54.648L56.048,54.664L56.051,54.68L56.054,54.696L56.056,54.712L56.058,54.729L56.059,54.745L56.061,54.762L56.061,54.779L56.061,54.795L56.061,61.543L56.061,61.575L56.061,61.607L56.06,61.638L56.058,61.67L56.056,61.701L56.054,61.732L56.052,61.763L56.049,61.794L56.045,61.825L56.042,61.856L56.038,61.887L56.033,61.917L56.028,61.948L56.023,61.978L56.017,62.008L56.011,62.038L56.005,62.068L55.998,62.098L55.991,62.127L55.984,62.157L55.976,62.186L55.968,62.216L55.96,62.245L55.951,62.273L55.942,62.302L55.932,62.331L55.922,62.359L55.912,62.388L55.902,62.416L55.891,62.444L55.88,62.472L55.868,62.499L55.856,62.527L55.844,62.554L55.832,62.581L55.819,62.608L55.806,62.635L55.792,62.661L55.779,62.688L55.765,62.714L55.75,62.74L55.736,62.766L55.721,62.791L55.705,62.817L55.69,62.842L55.674,62.867L55.658,62.892L55.642,62.916L55.625,62.941L55.608,62.965L55.591,62.989L55.573,63.013L55.555,63.036L55.537,63.06L55.519,63.083L55.5,63.106L55.481,63.128L55.462,63.151L55.443,63.173L55.423,63.195L55.403,63.216L55.383,63.238L55.362,63.259L55.341,63.28L55.321,63.301L55.299,63.321L55.278,63.342L55.256,63.361L55.234,63.381L55.212,63.401L55.19,63.42L55.167,63.439L55.144,63.457L55.121,63.476L55.098,63.494L55.074,63.512L55.05,63.529L55.026,63.546L55.002,63.563L54.978,63.58L54.953,63.597L54.928,63.613L54.903,63.629L54.878,63.644L54.853,63.659L54.827,63.674L54.801,63.689L54.775,63.703L54.749,63.717L54.723,63.731L54.696,63.744L54.669,63.758L54.642,63.77L54.615,63.783L54.588,63.795L54.561,63.807L54.533,63.818L54.505,63.829L54.477,63.84L54.449,63.851L54.421,63.861L54.392,63.871L54.364,63.88L54.335,63.889L54.306,63.898L54.277,63.907L54.248,63.915L54.218,63.923L54.189,63.93L54.159,63.937L54.129,63.944L54.1,63.95L54.069,63.956L54.039,63.962L54.009,63.967L53.979,63.972L53.948,63.976L53.917,63.98L53.887,63.984L53.856,63.987L53.825,63.99L53.794,63.993L53.762,63.995L53.731,63.997L53.7,63.998L53.668,63.999L53.636,64L53.605,64L52.376,64L52.345,64L52.313,63.999L52.281,63.998L52.25,63.997L52.219,63.995L52.187,63.993L52.156,63.99L52.125,63.987L52.094,63.984L52.064,63.98L52.033,63.976L52.002,63.972L51.972,63.967L51.942,63.962L51.911,63.956L51.881,63.95L51.852,63.944L51.822,63.937L51.792,63.93L51.763,63.923L51.733,63.915L51.704,63.907L51.675,63.898L51.646,63.889L51.617,63.88L51.589,63.871L51.56,63.861L51.532,63.851L51.504,63.84L51.476,63.829L51.448,63.818L51.42,63.807L51.393,63.795L51.366,63.783L51.339,63.77L51.312,63.758L51.285,63.744L51.258,63.731L51.232,63.717L51.206,63.703L51.18,63.689L51.154,63.674L51.128,63.659L51.103,63.644L51.078,63.629L51.053,63.613L51.028,63.597L51.003,63.58L50.979,63.563L50.955,63.546L50.931,63.529L50.907,63.512L50.883,63.494L50.86,63.476L50.837,63.457L50.814,63.439L50.791,63.42L50.769,63.401L50.747,63.381L50.725,63.361L50.703,63.342L50.682,63.321L50.66,63.301L50.639,63.28L50.619,63.259L50.598,63.238L50.578,63.216L50.558,63.195L50.538,63.173L50.519,63.151L50.5,63.128L50.481,63.106L50.462,63.083L50.444,63.06L50.426,63.036L50.408,63.013L50.39,62.989L50.373,62.965L50.356,62.941L50.339,62.916L50.323,62.892L50.307,62.867L50.291,62.842L50.275,62.817L50.26,62.791L50.245,62.766L50.231,62.74L50.216,62.714L50.202,62.688L50.189,62.661L50.175,62.635L50.162,62.608L50.149,62.581L50.137,62.554L50.125,62.527L50.113,62.499L50.101,62.472L50.09,62.444L50.079,62.416L50.069,62.388L50.059,62.359L50.049,62.331L50.039,62.302L50.03,62.273L50.021,62.245L50.013,62.216L50.005,62.186L49.997,62.157L49.99,62.127L49.983,62.098L49.976,62.068L49.97,62.038L49.964,62.008L49.958,61.978L49.953,61.948L49.948,61.917L49.943,61.887L49.939,61.856L49.936,61.825L49.932,61.794L49.929,61.763L49.927,61.732L49.925,61.701L49.923,61.67L49.921,61.638L49.92,61.607L49.92,61.575L49.92,61.543L49.92,54.726L49.92,54.711L49.92,54.697L49.921,54.682L49.923,54.667L49.924,54.652L49.926,54.638L49.929,54.623L49.931,54.609L49.935,54.595L49.938,54.581L49.942,54.567L49.946,54.553L49.95,54.54L49.955,54.526L49.96,54.513L49.965,54.5L49.971,54.487L49.977,54.474L49.983,54.461L49.99,54.449L49.997,54.436L50.004,54.424L50.011,54.412L50.019,54.401L50.027,54.389L50.035,54.378L50.044,54.367L50.053,54.356L50.062,54.345L50.071,54.335L50.081,54.324L50.09,54.314L50.1,54.305L50.111,54.295L50.121,54.286L50.132,54.277L50.143,54.268L50.154,54.259L50.165,54.251L50.177,54.243L50.188,54.235L50.2,54.228L50.212,54.221L50.225,54.214L50.237,54.207L50.25,54.201L50.263,54.195L50.276,54.189L50.289,54.184L50.302,54.179L50.316,54.174L50.329,54.17L50.343,54.166L50.357,54.162L50.371,54.158L50.385,54.155L50.399,54.153L50.414,54.15L50.428,54.148L50.443,54.146L50.458,54.145L50.473,54.144L50.488,54.144L50.503,54.143L55.409,54.143L55.418,54.144ZM51.72,55.943L51.72,61.538L51.72,61.561L51.721,61.578L51.722,61.595L51.723,61.612L51.725,61.629L51.727,61.645L51.73,61.661L51.733,61.677L51.736,61.692L51.74,61.708L51.744,61.723L51.749,61.738L51.754,61.753L51.759,61.768L51.764,61.783L51.77,61.798L51.777,61.812L51.783,61.826L51.79,61.84L51.798,61.854L51.806,61.868L51.814,61.882L51.822,61.895L51.831,61.909L51.84,61.922L51.849,61.935L51.859,61.947L51.869,61.96L51.879,61.972L51.89,61.984L51.901,61.996L51.912,62.007L51.924,62.019L51.936,62.03L51.948,62.04L51.96,62.051L51.972,62.061L51.985,62.07L51.998,62.08L52.011,62.089L52.024,62.098L52.038,62.106L52.051,62.114L52.065,62.122L52.079,62.129L52.093,62.136L52.107,62.143L52.122,62.149L52.137,62.155L52.151,62.161L52.166,62.166L52.181,62.171L52.196,62.175L52.212,62.179L52.227,62.183L52.243,62.187L52.258,62.19L52.275,62.192L52.291,62.195L52.307,62.196L52.324,62.198L52.341,62.199L52.359,62.2L52.382,62.2L53.599,62.2L53.614,62.2L53.622,62.2L53.631,62.199L53.64,62.199L53.648,62.199L53.657,62.198L53.665,62.197L53.674,62.196L53.682,62.196L53.69,62.195L53.698,62.194L53.706,62.192L53.714,62.191L53.722,62.19L53.73,62.188L53.738,62.187L53.746,62.185L53.754,62.183L53.762,62.181L53.769,62.179L53.777,62.177L53.785,62.175L53.792,62.173L53.8,62.171L53.807,62.168L53.815,62.166L53.822,62.163L53.83,62.161L53.837,62.158L53.844,62.155L53.852,62.152L53.859,62.149L53.866,62.146L53.873,62.143L53.88,62.14L53.888,62.136L53.895,62.133L53.902,62.129L53.909,62.126L53.916,62.122L53.923,62.118L53.929,62.114L53.936,62.11L53.943,62.106L53.95,62.102L53.957,62.098L53.963,62.093L53.97,62.089L53.976,62.084L53.983,62.08L53.99,62.075L53.996,62.07L54.002,62.065L54.009,62.061L54.015,62.056L54.021,62.05L54.027,62.045L54.033,62.04L54.039,62.035L54.045,62.03L54.051,62.024L54.057,62.019L54.063,62.013L54.069,62.007L54.074,62.002L54.08,61.996L54.085,61.99L54.091,61.984L54.096,61.978L54.102,61.972L54.107,61.966L54.112,61.96L54.117,61.954L54.122,61.947L54.127,61.941L54.132,61.935L54.136,61.928L54.141,61.922L54.146,61.915L54.15,61.908L54.155,61.902L54.159,61.895L54.163,61.888L54.167,61.882L54.171,61.875L54.175,61.868L54.179,61.861L54.183,61.854L54.187,61.847L54.191,61.84L54.194,61.833L54.198,61.826L54.201,61.819L54.204,61.812L54.207,61.805L54.211,61.797L54.214,61.79L54.216,61.783L54.219,61.776L54.222,61.768L54.225,61.761L54.227,61.753L54.23,61.746L54.232,61.738L54.234,61.731L54.237,61.723L54.239,61.716L54.241,61.708L54.243,61.7L54.245,61.692L54.246,61.685L54.248,61.677L54.25,61.669L54.251,61.661L54.252,61.653L54.254,61.645L54.255,61.637L54.256,61.629L54.257,61.62L54.258,61.612L54.259,61.604L54.259,61.595L54.26,61.587L54.26,61.578L54.261,61.57L54.261,61.561L54.261,61.552L54.261,61.537L54.261,55.943L51.72,55.943Z"/>
                <g transform="matrix(1,0,0,1,-42.1328,0)">
                    <path d="M55.418,54.144L55.435,54.144L55.451,54.145L55.468,54.146L55.484,54.148L55.501,54.15L55.517,54.152L55.533,54.155L55.549,54.158L55.557,54.16L55.572,54.164L55.588,54.168L55.603,54.173L55.618,54.178L55.633,54.183L55.648,54.189L55.663,54.195L55.678,54.201L55.692,54.208L55.706,54.215L55.72,54.222L55.734,54.23L55.747,54.238L55.761,54.246L55.774,54.255L55.787,54.264L55.799,54.273L55.812,54.283L55.824,54.292L55.836,54.303L55.848,54.313L55.859,54.324L55.87,54.335L55.881,54.346L55.892,54.357L55.902,54.369L55.912,54.381L55.922,54.393L55.932,54.405L55.941,54.418L55.95,54.431L55.959,54.444L55.967,54.457L55.975,54.471L55.983,54.485L55.99,54.499L55.997,54.513L56.004,54.527L56.01,54.542L56.016,54.556L56.022,54.571L56.027,54.586L56.032,54.602L56.037,54.617L56.041,54.633L56.045,54.648L56.048,54.664L56.051,54.68L56.054,54.696L56.056,54.712L56.058,54.729L56.059,54.745L56.061,54.762L56.061,54.779L56.061,54.795L56.061,61.543L56.061,61.575L56.061,61.607L56.06,61.638L56.058,61.67L56.056,61.701L56.054,61.732L56.052,61.763L56.049,61.794L56.045,61.825L56.042,61.856L56.038,61.887L56.033,61.917L56.028,61.948L56.023,61.978L56.017,62.008L56.011,62.038L56.005,62.068L55.998,62.098L55.991,62.127L55.984,62.157L55.976,62.186L55.968,62.216L55.96,62.245L55.951,62.273L55.942,62.302L55.932,62.331L55.922,62.359L55.912,62.388L55.902,62.416L55.891,62.444L55.88,62.472L55.868,62.499L55.856,62.527L55.844,62.554L55.832,62.581L55.819,62.608L55.806,62.635L55.792,62.661L55.779,62.688L55.765,62.714L55.75,62.74L55.736,62.766L55.721,62.791L55.705,62.817L55.69,62.842L55.674,62.867L55.658,62.892L55.642,62.916L55.625,62.941L55.608,62.965L55.591,62.989L55.573,63.013L55.555,63.036L55.537,63.06L55.519,63.083L55.5,63.106L55.481,63.128L55.462,63.151L55.443,63.173L55.423,63.195L55.403,63.216L55.383,63.238L55.362,63.259L55.341,63.28L55.321,63.301L55.299,63.321L55.278,63.342L55.256,63.361L55.234,63.381L55.212,63.401L55.19,63.42L55.167,63.439L55.144,63.457L55.121,63.476L55.098,63.494L55.074,63.512L55.05,63.529L55.026,63.546L55.002,63.563L54.978,63.58L54.953,63.597L54.928,63.613L54.903,63.629L54.878,63.644L54.853,63.659L54.827,63.674L54.801,63.689L54.775,63.703L54.749,63.717L54.723,63.731L54.696,63.744L54.669,63.758L54.642,63.77L54.615,63.783L54.588,63.795L54.561,63.807L54.533,63.818L54.505,63.829L54.477,63.84L54.449,63.851L54.421,63.861L54.392,63.871L54.364,63.88L54.335,63.889L54.306,63.898L54.277,63.907L54.248,63.915L54.218,63.923L54.189,63.93L54.159,63.937L54.129,63.944L54.1,63.95L54.069,63.956L54.039,63.962L54.009,63.967L53.979,63.972L53.948,63.976L53.917,63.98L53.887,63.984L53.856,63.987L53.825,63.99L53.794,63.993L53.762,63.995L53.731,63.997L53.7,63.998L53.668,63.999L53.636,64L53.605,64L52.376,64L52.345,64L52.313,63.999L52.281,63.998L52.25,63.997L52.219,63.995L52.187,63.993L52.156,63.99L52.125,63.987L52.094,63.984L52.064,63.98L52.033,63.976L52.002,63.972L51.972,63.967L51.942,63.962L51.911,63.956L51.881,63.95L51.852,63.944L51.822,63.937L51.792,63.93L51.763,63.923L51.733,63.915L51.704,63.907L51.675,63.898L51.646,63.889L51.617,63.88L51.589,63.871L51.56,63.861L51.532,63.851L51.504,63.84L51.476,63.829L51.448,63.818L51.42,63.807L51.393,63.795L51.366,63.783L51.339,63.77L51.312,63.758L51.285,63.744L51.258,63.731L51.232,63.717L51.206,63.703L51.18,63.689L51.154,63.674L51.128,63.659L51.103,63.644L51.078,63.629L51.053,63.613L51.028,63.597L51.003,63.58L50.979,63.563L50.955,63.546L50.931,63.529L50.907,63.512L50.883,63.494L50.86,63.476L50.837,63.457L50.814,63.439L50.791,63.42L50.769,63.401L50.747,63.381L50.725,63.361L50.703,63.342L50.682,63.321L50.66,63.301L50.639,63.28L50.619,63.259L50.598,63.238L50.578,63.216L50.558,63.195L50.538,63.173L50.519,63.151L50.5,63.128L50.481,63.106L50.462,63.083L50.444,63.06L50.426,63.036L50.408,63.013L50.39,62.989L50.373,62.965L50.356,62.941L50.339,62.916L50.323,62.892L50.307,62.867L50.291,62.842L50.275,62.817L50.26,62.791L50.245,62.766L50.231,62.74L50.216,62.714L50.202,62.688L50.189,62.661L50.175,62.635L50.162,62.608L50.149,62.581L50.137,62.554L50.125,62.527L50.113,62.499L50.101,62.472L50.09,62.444L50.079,62.416L50.069,62.388L50.059,62.359L50.049,62.331L50.039,62.302L50.03,62.273L50.021,62.245L50.013,62.216L50.005,62.186L49.997,62.157L49.99,62.127L49.983,62.098L49.976,62.068L49.97,62.038L49.964,62.008L49.958,61.978L49.953,61.948L49.948,61.917L49.943,61.887L49.939,61.856L49.936,61.825L49.932,61.794L49.929,61.763L49.927,61.732L49.925,61.701L49.923,61.67L49.921,61.638L49.92,61.607L49.92,61.575L49.92,61.543L49.92,54.726L49.92,54.711L49.92,54.697L49.921,54.682L49.923,54.667L49.924,54.652L49.926,54.638L49.929,54.623L49.931,54.609L49.935,54.595L49.938,54.581L49.942,54.567L49.946,54.553L49.95,54.54L49.955,54.526L49.96,54.513L49.965,54.5L49.971,54.487L49.977,54.474L49.983,54.461L49.99,54.449L49.997,54.436L50.004,54.424L50.011,54.412L50.019,54.401L50.027,54.389L50.035,54.378L50.044,54.367L50.053,54.356L50.062,54.345L50.071,54.335L50.081,54.324L50.09,54.314L50.1,54.305L50.111,54.295L50.121,54.286L50.132,54.277L50.143,54.268L50.154,54.259L50.165,54.251L50.177,54.243L50.188,54.235L50.2,54.228L50.212,54.221L50.225,54.214L50.237,54.207L50.25,54.201L50.263,54.195L50.276,54.189L50.289,54.184L50.302,54.179L50.316,54.174L50.329,54.17L50.343,54.166L50.357,54.162L50.371,54.158L50.385,54.155L50.399,54.153L50.414,54.15L50.428,54.148L50.443,54.146L50.458,54.145L50.473,54.144L50.488,54.144L50.503,54.143L55.409,54.143L55.418,54.144ZM51.72,55.943L51.72,61.538L51.72,61.561L51.72,61.578L51.722,61.595L51.723,61.612L51.725,61.629L51.727,61.645L51.73,61.661L51.733,61.677L51.736,61.693L51.74,61.708L51.744,61.723L51.749,61.738L51.754,61.753L51.759,61.768L51.764,61.783L51.77,61.798L51.777,61.812L51.783,61.826L51.79,61.84L51.798,61.854L51.806,61.868L51.814,61.882L51.822,61.895L51.831,61.909L51.84,61.922L51.849,61.935L51.859,61.947L51.869,61.96L51.879,61.972L51.89,61.984L51.901,61.996L51.912,62.007L51.924,62.018L51.936,62.029L51.948,62.04L51.96,62.051L51.972,62.061L51.985,62.07L51.998,62.08L52.011,62.089L52.024,62.098L52.038,62.106L52.051,62.114L52.065,62.122L52.079,62.129L52.093,62.136L52.108,62.143L52.122,62.149L52.137,62.155L52.151,62.161L52.166,62.166L52.181,62.171L52.196,62.175L52.212,62.179L52.227,62.183L52.243,62.187L52.258,62.19L52.275,62.192L52.291,62.195L52.307,62.196L52.324,62.198L52.341,62.199L52.359,62.2L52.382,62.2L53.599,62.2L53.614,62.2L53.622,62.2L53.631,62.199L53.64,62.199L53.648,62.199L53.657,62.198L53.665,62.197L53.674,62.196L53.682,62.196L53.69,62.195L53.698,62.194L53.706,62.192L53.714,62.191L53.722,62.19L53.73,62.188L53.738,62.187L53.746,62.185L53.754,62.183L53.762,62.181L53.769,62.179L53.777,62.177L53.785,62.175L53.792,62.173L53.8,62.171L53.807,62.168L53.815,62.166L53.822,62.163L53.83,62.161L53.837,62.158L53.844,62.155L53.852,62.152L53.859,62.149L53.866,62.146L53.873,62.143L53.88,62.14L53.888,62.136L53.895,62.133L53.902,62.129L53.909,62.126L53.916,62.122L53.923,62.118L53.93,62.114L53.936,62.11L53.943,62.106L53.95,62.102L53.957,62.098L53.963,62.093L53.97,62.089L53.976,62.084L53.983,62.08L53.99,62.075L53.996,62.07L54.002,62.065L54.009,62.061L54.015,62.056L54.021,62.051L54.027,62.045L54.033,62.04L54.039,62.035L54.045,62.029L54.051,62.024L54.057,62.019L54.063,62.013L54.069,62.007L54.074,62.002L54.08,61.996L54.085,61.99L54.091,61.984L54.096,61.978L54.102,61.972L54.107,61.966L54.112,61.96L54.117,61.954L54.122,61.947L54.127,61.941L54.132,61.935L54.136,61.928L54.141,61.922L54.146,61.915L54.15,61.909L54.155,61.902L54.159,61.895L54.163,61.889L54.167,61.882L54.171,61.875L54.175,61.868L54.179,61.861L54.183,61.854L54.187,61.847L54.191,61.84L54.194,61.833L54.198,61.826L54.201,61.819L54.204,61.812L54.207,61.805L54.211,61.798L54.214,61.79L54.216,61.783L54.219,61.776L54.222,61.768L54.225,61.761L54.227,61.753L54.23,61.746L54.232,61.738L54.234,61.731L54.237,61.723L54.239,61.716L54.241,61.708L54.243,61.7L54.245,61.693L54.246,61.685L54.248,61.677L54.25,61.669L54.251,61.661L54.252,61.653L54.254,61.645L54.255,61.637L54.256,61.629L54.257,61.621L54.258,61.612L54.259,61.604L54.259,61.595L54.26,61.587L54.26,61.578L54.261,61.57L54.261,61.561L54.261,61.552L54.261,61.538L54.261,55.943L51.72,55.943Z"/>
                </g>
            </g>
        </g>
    </g>
</svg>
